<svg width="48" height="48" viewBox="0 0 48 48" fill="none" xmlns="http://www.w3.org/2000/svg">
<g clip-path="url(#clip0_8_295)">
<path d="M6.58118 2.1383L12.9812 1.53832C14.9812 1.33832 16.9812 1.93834 18.5812 2.93834L26.9812 8.53832C28.3812 9.53832 28.7812 11.3383 27.7812 12.7383C26.7812 14.1383 24.9812 14.5383 23.5812 13.5383L17.1812 9.33836" stroke="#5D4CAF" stroke-width="2" stroke-miterlimit="10" stroke-linecap="round" stroke-linejoin="round"/>
<path d="M1.5 9.53834L6.5 12.9384C7.9 13.9384 9.7 14.5383 11.5 14.5383H15.5C17.1 14.5383 18.3 13.3383 18.5 11.7383C18.5 10.3383 17.5 9.13836 16.1 8.93836L10.9 8.73828" stroke="#5D4CAF" stroke-width="2" stroke-miterlimit="10" stroke-linecap="round" stroke-linejoin="round"/>
<path d="M16.3 41.5H12.9C11.1 41.5 9.5 41.3 9.5 43.1C9.5 44.9 9.5 46.5 12.9 46.5C16.3 46.5 38.1 46.5 38.1 46.5C42.5 46.5 46.5 45.1 46.5 39.5C46.5 33.9 41.7 30.5 35.7 30.5C31.8618 30.5 27.9778 30.9604 24.9752 31.859" stroke="#5D4CAF" stroke-width="2" stroke-miterlimit="10" stroke-linecap="round" stroke-linejoin="round"/>
<path d="M19.3001 33.3C18.1001 35.7 16.3001 37.5 19.5001 39.1C22.7 40.7 23.9 39.9 24.7 35.3C25.1 32.5 25.9002 29.5 21.1002 26.9C17.3001 24.9 14.1001 28.1 14.1001 28.1L9.70008 27.3C9.70008 27.3 4.5001 33.7 11.5001 36.3" stroke="#5D4CAF" stroke-width="2" stroke-miterlimit="10" stroke-linecap="round" stroke-linejoin="round"/>
<path d="M38.595 30.7718L38.7 30.5C41.1 24.9 40.9 20.3 37.7 18.5C47.5 18.3 47.1 28.3 43.7 32.5L43.3842 32.9046" stroke="#5D4CAF" stroke-width="2" stroke-miterlimit="10" stroke-linecap="round" stroke-linejoin="round"/>
<path d="M37.9 36.3C34.5 36.3 29.5 39.7 32.9 46.5" stroke="#5D4CAF" stroke-width="2" stroke-miterlimit="10" stroke-linecap="round" stroke-linejoin="round"/>
</g>
<defs>
<clipPath id="clip0_8_295">
<rect width="48" height="48" fill="white"/>
</clipPath>
</defs>
</svg>
