<svg width="48" height="48" viewBox="0 0 48 48" fill="none" xmlns="http://www.w3.org/2000/svg">
<g clip-path="url(#clip0_8_55)">
<path d="M26.1 23.4746C19.1 2.4746 17.7 1.47461 13.3 1.47461V7.4746L3.1 12.4746C2.1 13.0746 1.5 14.0746 1.5 15.0746V16.2747C1.5 19.4747 4.1 22.2746 7.5 22.2746H10.5V36.6746" stroke="#5D4CAF" stroke-width="2" stroke-miterlimit="10" stroke-linecap="round" stroke-linejoin="round"/>
<path d="M10.5 29.4744L25.2046 20.8128" stroke="#5D4CAF" stroke-width="2" stroke-miterlimit="10" stroke-linecap="round" stroke-linejoin="round"/>
<path d="M38.9 17.45L45.3 23.85C46.9 25.45 46.9 27.85 45.3 29.45L29.3 45.45C27.9 46.85 25.7 46.85 24.3 45.45C22.9 44.05 22.9 41.85 24.3 40.45L29.937 34.813L25.737 30.613" stroke="#5D4CAF" stroke-width="2" stroke-miterlimit="10" stroke-linecap="round" stroke-linejoin="round"/>
<path d="M34.4428 30.3072L30.2428 26.1072" stroke="#5D4CAF" stroke-width="2" stroke-miterlimit="10" stroke-linecap="round" stroke-linejoin="round"/>
<path d="M38.9842 25.7658L34.5842 21.5658" stroke="#5D4CAF" stroke-width="2" stroke-miterlimit="10" stroke-linecap="round" stroke-linejoin="round"/>
</g>
<defs>
<clipPath id="clip0_8_55">
<rect width="48" height="48" fill="white"/>
</clipPath>
</defs>
</svg>
