<svg width="48" height="48" viewBox="0 0 48 48" fill="none" xmlns="http://www.w3.org/2000/svg">
<path d="M19.146 35.968C18.902 35.728 18.492 35.416 18.454 35.456L35.418 18.492C35.38 18.532 35.688 18.94 35.93 19.182C36.4794 19.7297 37.1318 20.1631 37.8496 20.4573C38.5674 20.7515 39.3363 20.9007 40.112 20.8962C40.8877 20.8918 41.6549 20.7337 42.3692 20.4313C43.0835 20.1288 43.7309 19.6879 44.274 19.134C45.173 18.2256 45.7565 17.0524 45.9386 15.7874C46.1207 14.5223 45.8917 13.2322 45.2853 12.1071C44.679 10.982 43.7274 10.0814 42.5706 9.53786C41.4138 8.99433 40.1131 8.83665 38.86 9.08804C39.1131 7.83758 38.957 6.53886 38.4148 5.38399C37.8727 4.22911 36.9732 3.27941 35.8494 2.67537C34.7256 2.07132 33.4373 1.84501 32.175 2.0299C30.9126 2.2148 29.7433 2.80108 28.84 3.70203C27.7543 4.88294 27.1686 6.43867 27.2059 8.04236C27.2432 9.64606 27.9006 11.1729 29.04 12.302C29.3435 12.6086 29.6787 12.8822 30.04 13.118L13.082 30.084C12.8444 29.7229 12.5695 29.3878 12.262 29.084C11.1426 27.9556 9.6246 27.3123 8.03528 27.2929C6.44595 27.2734 4.91265 27.8794 3.76599 28.98C2.85672 29.8656 2.25969 31.0226 2.06475 32.2768C1.86981 33.5311 2.08751 34.8147 2.68509 35.9345C3.28266 37.0543 4.22778 37.9497 5.37821 38.486C6.52863 39.0223 7.82212 39.1704 9.06399 38.908C8.86464 39.865 8.9065 40.8565 9.18581 41.7932C9.46513 42.73 9.97311 43.5825 10.664 44.274C11.7798 45.393 13.2927 46.0256 14.8729 46.0338C16.4531 46.0421 17.9726 45.4253 19.1 44.318C19.6535 43.774 20.0939 43.126 20.396 42.4111C20.698 41.6962 20.8557 40.9287 20.86 40.1526C20.8643 39.3765 20.715 38.6073 20.4209 37.8892C20.1267 37.171 19.6934 36.5181 19.146 35.968Z" stroke="#5D4CAF" stroke-width="2" stroke-linecap="round" stroke-linejoin="round"/>
</svg>
