<svg width="24" height="24" viewBox="0 0 24 24" fill="none" xmlns="http://www.w3.org/2000/svg">
<g clip-path="url(#clip0_30_1202)">
<path d="M22.5816 18.8125L18.7816 22.6125C18.2816 23.1125 17.4816 23.1125 17.0816 22.6125C16.5816 22.1125 16.5816 21.3125 17.0816 20.9125M17.0816 20.9125L15.7816 22.2125C15.2816 22.7125 14.4816 22.7125 14.0816 22.2125C13.5816 21.7125 13.5816 20.9125 14.0816 20.5125M17.0816 20.9125L18.8816 19.1125M14.0816 20.5125L13.6816 20.9125C13.1816 21.4125 12.3816 21.4125 11.9816 20.9125C11.4816 20.4125 11.4816 19.6125 11.9816 19.2125L12.8816 18.3125M14.0816 20.5125L16.6816 17.9125M12.8816 18.3125C12.3816 18.8125 11.5816 18.8125 11.1816 18.3125C10.7816 17.8125 10.6816 17.0125 11.1816 16.6125L14.2816 13.5125M12.8816 18.3125L15.0816 16.2125M14.2816 13.5125C13.7816 14.0125 12.9816 14.0125 12.5816 13.5125C12.0816 13.0125 12.0816 12.2125 12.5816 11.8125L15.9816 8.41251C16.8816 7.51251 18.0816 7.11251 19.2816 7.41251L21.0816 7.81253C21.4816 7.91253 21.8816 7.81251 22.1816 7.51251L23.4816 6.21252M14.2816 13.5125L15.5816 12.2143" stroke="#5D4CAF" stroke-miterlimit="10" stroke-linecap="round" stroke-linejoin="round"/>
<path d="M15.8935 5.96458L15.3322 5.51554C15.3322 5.51554 14.9631 1.99048 12.4622 0.7732C12.1131 0.706078 11.3973 4.58668 11.3973 4.58668C11.3973 4.58668 9.27421 4.48224 8.61923 4.85849C6.792 5.90813 6.13707 7.55895 6.13707 7.55895C6.13707 7.55895 3.61549 7.91412 1.88674 8.2617C-0.653437 8.6573 1.74266 12.6827 2.54603 13.4861C3.34941 14.2895 5.64942 14.2411 6.28995 14.2895C6.93049 14.3378 7.51811 14.7556 7.64308 15.4576L8.40207 22.8081" stroke="#5D4CAF" stroke-miterlimit="10" stroke-linecap="round" stroke-linejoin="round"/>
<path d="M21.6062 19.7822L22.9074 21.5629" stroke="#5D4CAF" stroke-linecap="round"/>
</g>
<defs>
<clipPath id="clip0_30_1202">
<rect width="24" height="24" fill="white"/>
</clipPath>
</defs>
</svg>
