<svg width="24" height="24" viewBox="0 0 24 24" fill="none" xmlns="http://www.w3.org/2000/svg">
<path d="M23.5 9.072C23.5 11.224 18.384 13 12.033 13C5.682 13 0.5 11.224 0.5 9.072C0.5 6.92 5.682 5 12.033 5C18.384 5 23.5 6.92 23.5 9.072Z" stroke="#5D4CAF" stroke-linecap="round" stroke-linejoin="round"/>
<path d="M3.56104 11.729C5.58704 11.094 7.00004 9.99999 12.033 9.99999C15.0442 9.91837 18.0398 10.4583 20.833 11.586" stroke="#5D4CAF" stroke-linecap="round" stroke-linejoin="round"/>
<path d="M23.5 9V15.072C23.5 17.224 18.384 19 12.033 19C5.682 19 0.5 17.224 0.5 15.072V9" stroke="#5D4CAF" stroke-linecap="round" stroke-linejoin="round"/>
<path d="M15.5 18.816V12.811" stroke="#5D4CAF" stroke-linecap="round" stroke-linejoin="round"/>
<path d="M8.5 12.811V18.824" stroke="#5D4CAF" stroke-linecap="round" stroke-linejoin="round"/>
<path d="M3.03296 14.75C2.89489 14.75 2.78296 14.6381 2.78296 14.5C2.78296 14.3619 2.89489 14.25 3.03296 14.25" stroke="#5D4CAF"/>
<path d="M3.03296 14.75C3.17103 14.75 3.28296 14.6381 3.28296 14.5C3.28296 14.3619 3.17103 14.25 3.03296 14.25" stroke="#5D4CAF"/>
<path d="M21.033 14.75C20.8949 14.75 20.783 14.6381 20.783 14.5C20.783 14.3619 20.8949 14.25 21.033 14.25" stroke="#5D4CAF"/>
<path d="M21.033 14.75C21.1711 14.75 21.283 14.6381 21.283 14.5C21.283 14.3619 21.1711 14.25 21.033 14.25" stroke="#5D4CAF"/>
<path d="M6.03296 15.75C5.89489 15.75 5.78296 15.6381 5.78296 15.5C5.78296 15.3619 5.89489 15.25 6.03296 15.25" stroke="#5D4CAF"/>
<path d="M6.03296 15.75C6.17103 15.75 6.28296 15.6381 6.28296 15.5C6.28296 15.3619 6.17103 15.25 6.03296 15.25" stroke="#5D4CAF"/>
<path d="M18.033 15.75C17.8949 15.75 17.783 15.6381 17.783 15.5C17.783 15.3619 17.8949 15.25 18.033 15.25" stroke="#5D4CAF"/>
<path d="M18.033 15.75C18.1711 15.75 18.283 15.6381 18.283 15.5C18.283 15.3619 18.1711 15.25 18.033 15.25" stroke="#5D4CAF"/>
</svg>
