<svg width="24" height="24" viewBox="0 0 24 24" fill="none" xmlns="http://www.w3.org/2000/svg">
<g clip-path="url(#clip0_30_1215)">
<path d="M20.5 11.2929V8.79297" stroke="#5D4CAF" stroke-linecap="round" stroke-linejoin="round"/>
<path d="M3.5 8.79004V22.7901C3.5 22.9227 3.55268 23.0499 3.64645 23.1436C3.74021 23.2374 3.86739 23.2901 4 23.2901H7C7.13261 23.2901 7.25979 23.2374 7.35355 23.1436C7.44732 23.0499 7.5 22.9227 7.5 22.7901V16.0001C7.4812 14.8113 7.91973 13.6607 8.72499 12.7861C9.53026 11.9114 10.6407 11.3794 11.827 11.3001C12.0516 11.2919 12.2765 11.3 12.5 11.3241" stroke="#5D4CAF" stroke-linecap="round" stroke-linejoin="round"/>
<path d="M0.5 11.7931L11.293 1.00006C11.4805 0.812591 11.7348 0.707275 12 0.707275C12.2652 0.707275 12.5195 0.812591 12.707 1.00006L23.5 11.7931" stroke="#5D4CAF" stroke-linecap="round" stroke-linejoin="round"/>
<path d="M9.56592 18.524L14.1659 14.863C14.7369 11.209 17.1969 10.463 17.1969 10.463V13.3H19.7179C20.0523 13.3 20.3731 13.4329 20.6096 13.6694C20.846 13.9058 20.9789 14.2266 20.9789 14.561V15.191C20.9789 15.3584 21.0454 15.5189 21.1637 15.6372C21.2821 15.7555 21.4425 15.822 21.6099 15.822L22.4849 15.808C22.6176 15.8059 22.7493 15.8302 22.8725 15.8795C22.9957 15.9288 23.1078 16.0021 23.2024 16.0952C23.2969 16.1883 23.372 16.2992 23.4233 16.4216C23.4745 16.544 23.5009 16.6753 23.5009 16.808V17.708C23.5009 18.2095 23.3017 18.6905 22.947 19.0452C22.5924 19.3998 22.1114 19.599 21.6099 19.599H19.4259C19.224 19.5989 19.025 19.6474 18.8457 19.7403C18.6665 19.8332 18.5122 19.9679 18.3959 20.133L16.4739 22.855" stroke="#5D4CAF" stroke-linecap="round" stroke-linejoin="round"/>
<path d="M17.5811 21.293L12.4871 16.199" stroke="#5D4CAF" stroke-linecap="round" stroke-linejoin="round"/>
<path d="M10.998 17.384L16.474 22.861" stroke="#5D4CAF" stroke-linecap="round" stroke-linejoin="round"/>
<path d="M18.718 16.272C18.5799 16.272 18.468 16.16 18.468 16.022C18.468 15.8839 18.5799 15.772 18.718 15.772" stroke="#5D4CAF"/>
<path d="M18.718 16.272C18.8561 16.272 18.968 16.16 18.968 16.022C18.968 15.8839 18.8561 15.772 18.718 15.772" stroke="#5D4CAF"/>
</g>
<defs>
<clipPath id="clip0_30_1215">
<rect width="24" height="24" fill="white"/>
</clipPath>
</defs>
</svg>
