<svg width="48" height="48" viewBox="0 0 48 48" fill="none" xmlns="http://www.w3.org/2000/svg">
<path d="M43.242 25.47C43.1629 25.1985 43.0004 24.9587 42.7775 24.7846C42.5546 24.6105 42.2826 24.511 42 24.5H5.99996C5.71735 24.511 5.44535 24.6105 5.22245 24.7846C4.99956 24.9587 4.83706 25.1985 4.75796 25.47L1.96996 36.62C1.82245 37.0822 1.79 37.5733 1.87543 38.0509C1.96086 38.5285 2.16159 38.9779 2.46018 39.3603C2.75877 39.7426 3.1462 40.0463 3.58881 40.2449C4.03142 40.4436 4.51583 40.5311 4.99996 40.5H43C43.4841 40.5311 43.9685 40.4436 44.4111 40.2449C44.8537 40.0463 45.2412 39.7426 45.5397 39.3603C45.8383 38.9779 46.0391 38.5285 46.1245 38.0509C46.2099 37.5733 46.1775 37.0822 46.03 36.62L43.242 25.47Z" stroke="#5D4CAF" stroke-width="2" stroke-linecap="round" stroke-linejoin="round"/>
<path d="M41 20.512C41.0839 19.7103 41.0009 18.9 40.7561 18.1321C40.5114 17.3642 40.1102 16.6552 39.5779 16.05C39.0456 15.4448 38.3937 14.9564 37.6633 14.6156C36.9329 14.2749 36.1398 14.0891 35.334 14.07C34.4247 14.0695 33.5287 14.2884 32.722 14.708C32.3319 12.6802 31.2476 10.8517 29.6555 9.53673C28.0634 8.22175 26.0629 7.50244 23.998 7.50244C21.9331 7.50244 19.9326 8.22175 18.3405 9.53673C16.7484 10.8517 15.6641 12.6802 15.274 14.708C14.4713 14.2893 13.5794 14.0704 12.674 14.07C9.538 14.07 7 16.496 7 20.546" stroke="#5D4CAF" stroke-width="2" stroke-linecap="round" stroke-linejoin="round"/>
<path d="M32 30.5H16C15.4477 30.5 15 30.9477 15 31.5V33.5C15 34.0523 15.4477 34.5 16 34.5H32C32.5523 34.5 33 34.0523 33 33.5V31.5C33 30.9477 32.5523 30.5 32 30.5Z" stroke="#5D4CAF" stroke-width="2" stroke-linecap="round" stroke-linejoin="round"/>
</svg>
