<svg width="48" height="48" viewBox="0 0 48 48" fill="none" xmlns="http://www.w3.org/2000/svg">
<path d="M30.12 3.53802L34.182 7.60002C36.464 9.88402 34.886 15.228 30.582 19.526C26.278 23.824 22.402 24.11 20.036 21.744L16.686 18.386" stroke="#5D4CAF" stroke-width="2" stroke-linecap="round" stroke-linejoin="round"/>
<path d="M21.6499 22.834L5.11389 39.34C4.82723 39.6166 4.59853 39.9475 4.44113 40.3135C4.28374 40.6794 4.2008 41.073 4.19715 41.4713C4.1935 41.8697 4.26922 42.2648 4.41989 42.6335C4.57056 43.0023 4.79316 43.3373 5.0747 43.6191C5.35625 43.9009 5.69109 44.1239 6.05971 44.2749C6.42833 44.4259 6.82333 44.502 7.22167 44.4987C7.62 44.4954 8.0137 44.4129 8.37979 44.2558C8.74587 44.0988 9.07701 43.8704 9.35389 43.584L22.0399 30.9C29.8739 34.444 46.0499 18.1 43.4939 10.442C42.4939 7.42398 38.3139 6.13798 36.2279 8.22998L35.1119 9.34198" stroke="#5D4CAF" stroke-width="2" stroke-linecap="round" stroke-linejoin="round"/>
<path d="M26.488 22.522L17.394 13.438" stroke="#5D4CAF" stroke-width="2" stroke-linecap="round" stroke-linejoin="round"/>
<path d="M29.8641 20.214L19.9641 10.35" stroke="#5D4CAF" stroke-width="2" stroke-linecap="round" stroke-linejoin="round"/>
<path d="M32.524 17.25L22.79 7.52197" stroke="#5D4CAF" stroke-width="2" stroke-linecap="round" stroke-linejoin="round"/>
<path d="M34.5639 13.64L25.8799 4.95001" stroke="#5D4CAF" stroke-width="2" stroke-linecap="round" stroke-linejoin="round"/>
</svg>
