<svg width="48" height="48" viewBox="0 0 48 48" fill="none" xmlns="http://www.w3.org/2000/svg">
<g clip-path="url(#clip0_30_941)">
<path d="M25.7679 32.132C19.5519 33.02 19.6519 30.868 8.08988 45.566C7.33547 46.2946 6.32506 46.6978 5.27628 46.6887C4.22749 46.6796 3.22424 46.2589 2.48261 45.5173C1.74098 44.7756 1.3203 43.7724 1.31119 42.7236C1.30207 41.6748 1.70525 40.6644 2.43388 39.91C17.3519 28.176 15.0099 28.246 15.8679 22.232" stroke="#5D4CAF" stroke-width="2" stroke-linecap="round" stroke-linejoin="round"/>
<path d="M46.275 13.0405L34.9613 1.72676C34.5707 1.33624 33.9376 1.33624 33.547 1.72676L15.1623 20.1115C14.7717 20.5021 14.7717 21.1352 15.1623 21.5257L26.476 32.8395C26.8665 33.23 27.4997 33.23 27.8902 32.8395L46.275 14.4547C46.6655 14.0642 46.6655 13.431 46.275 13.0405Z" stroke="#5D4CAF" stroke-width="2" stroke-linecap="round" stroke-linejoin="round"/>
<path d="M35.668 2.43402C36.4181 1.68414 37.4353 1.26288 38.496 1.26288C39.5566 1.26288 40.5739 1.68414 41.324 2.43402L45.566 6.67602C46.3159 7.42614 46.7371 8.44337 46.7371 9.50402C46.7371 10.5647 46.3159 11.5819 45.566 12.332" stroke="#5D4CAF" stroke-width="2" stroke-linecap="round" stroke-linejoin="round"/>
</g>
<defs>
<clipPath id="clip0_30_941">
<rect width="48" height="48" fill="white"/>
</clipPath>
</defs>
</svg>
