<svg width="48" height="48" viewBox="0 0 48 48" fill="none" xmlns="http://www.w3.org/2000/svg">
<g clip-path="url(#clip0_8_101)">
<path d="M45 15H33V3C33 2.46957 32.7893 1.96086 32.4142 1.58579C32.0391 1.21071 31.5304 1 31 1H17C16.4696 1 15.9609 1.21071 15.5858 1.58579C15.2107 1.96086 15 2.46957 15 3V15H3C2.46957 15 1.96086 15.2107 1.58579 15.5858C1.21071 15.9609 1 16.4696 1 17V31C1 31.5304 1.21071 32.0391 1.58579 32.4142C1.96086 32.7893 2.46957 33 3 33H15V45C15 45.5304 15.2107 46.0391 15.5858 46.4142C15.9609 46.7893 16.4696 47 17 47H31C31.5304 47 32.0391 46.7893 32.4142 46.4142C32.7893 46.0391 33 45.5304 33 45V33H45C45.5304 33 46.0391 32.7893 46.4142 32.4142C46.7893 32.0391 47 31.5304 47 31V17C47 16.4696 46.7893 15.9609 46.4142 15.5858C46.0391 15.2107 45.5304 15 45 15Z" stroke="#5D4CAF" stroke-width="2" stroke-linecap="round" stroke-linejoin="round"/>
<path d="M26 22.974C25.7781 22.6722 25.4884 22.4268 25.1541 22.2577C24.8199 22.0886 24.4506 22.0005 24.076 22.0005C23.7014 22.0005 23.3321 22.0886 22.9979 22.2577C22.6636 22.4268 22.3739 22.6722 22.152 22.974L18.43 28.086C18.1697 28.4531 18.0137 28.8838 17.9785 29.3324C17.9433 29.781 18.0302 30.2308 18.23 30.634C18.4254 31.0336 18.7265 31.3721 19.1005 31.6129C19.4745 31.8537 19.9073 31.9876 20.352 32H27.648C28.0931 31.987 28.5263 31.8532 28.9012 31.6128C29.276 31.3724 29.5784 31.0346 29.7759 30.6354C29.9734 30.2363 30.0586 29.791 30.0223 29.3472C29.986 28.9033 29.8297 28.4778 29.57 28.116L26 22.974Z" stroke="#5D4CAF" stroke-width="2" stroke-linecap="round" stroke-linejoin="round"/>
<path d="M14 22C14 22.5304 14.2107 23.0391 14.5858 23.4142C14.9609 23.7893 15.4696 24 16 24C16.5304 24 17.0391 23.7893 17.4142 23.4142C17.7893 23.0391 18 22.5304 18 22C18 21.4696 17.7893 20.9609 17.4142 20.5858C17.0391 20.2107 16.5304 20 16 20C15.4696 20 14.9609 20.2107 14.5858 20.5858C14.2107 20.9609 14 21.4696 14 22Z" stroke="#5D4CAF" stroke-width="2" stroke-linecap="round" stroke-linejoin="round"/>
<path d="M21.968 17C21.968 17.5304 22.1787 18.0391 22.5538 18.4142C22.9289 18.7893 23.4376 19 23.968 19C24.4985 19 25.0072 18.7893 25.3822 18.4142C25.7573 18.0391 25.968 17.5304 25.968 17C25.968 16.4696 25.7573 15.9609 25.3822 15.5858C25.0072 15.2107 24.4985 15 23.968 15C23.4376 15 22.9289 15.2107 22.5538 15.5858C22.1787 15.9609 21.968 16.4696 21.968 17Z" stroke="#5D4CAF" stroke-width="2" stroke-linecap="round" stroke-linejoin="round"/>
<path d="M30 22C30 22.5304 30.2107 23.0391 30.5858 23.4142C30.9609 23.7893 31.4696 24 32 24C32.5304 24 33.0391 23.7893 33.4142 23.4142C33.7893 23.0391 34 22.5304 34 22C34 21.4696 33.7893 20.9609 33.4142 20.5858C33.0391 20.2107 32.5304 20 32 20C31.4696 20 30.9609 20.2107 30.5858 20.5858C30.2107 20.9609 30 21.4696 30 22Z" stroke="#5D4CAF" stroke-width="2" stroke-linecap="round" stroke-linejoin="round"/>
</g>
<defs>
<clipPath id="clip0_8_101">
<rect width="48" height="48" fill="white"/>
</clipPath>
</defs>
</svg>
