<svg width="48" height="48" viewBox="0 0 48 48" fill="none" xmlns="http://www.w3.org/2000/svg">
<g clip-path="url(#clip0_8_316)">
<path d="M33.1 29.7C34.7568 29.7 36.1 28.3568 36.1 26.7C36.1 25.0432 34.7568 23.7 33.1 23.7C31.4432 23.7 30.1 25.0432 30.1 26.7C30.1 28.3568 31.4432 29.7 33.1 29.7Z" stroke="#5D4CAF" stroke-width="2" stroke-miterlimit="10" stroke-linecap="round" stroke-linejoin="round"/>
<path d="M22.5 35.7C24.1568 35.7 25.5 34.3568 25.5 32.7C25.5 31.0432 24.1568 29.7 22.5 29.7C20.8432 29.7 19.5 31.0432 19.5 32.7C19.5 34.3568 20.8432 35.7 22.5 35.7Z" stroke="#5D4CAF" stroke-width="2" stroke-miterlimit="10" stroke-linecap="round" stroke-linejoin="round"/>
<path d="M43.5 35.7C45.1568 35.7 46.5 34.3568 46.5 32.7C46.5 31.0432 45.1568 29.7 43.5 29.7C41.8432 29.7 40.5 31.0432 40.5 32.7C40.5 34.3568 41.8432 35.7 43.5 35.7Z" stroke="#5D4CAF" stroke-width="2" stroke-miterlimit="10" stroke-linecap="round" stroke-linejoin="round"/>
<path d="M27.1 46.5C25.9 46.5 25.1 45.1 25.9 44.1L31.9 36.1C32.5 35.3 33.7 35.3 34.3 36.1L40.3 44.1C41.1 45.1 40.3 46.5 39.1 46.5H27.1Z" stroke="#5D4CAF" stroke-width="2" stroke-miterlimit="10" stroke-linecap="round" stroke-linejoin="round"/>
<path d="M18 42.7001H4.5V14.7001C4.5 14.1001 4.9 13.7001 5.5 13.7001H18.5C19.1 13.7001 19.5 14.1001 19.5 14.7001V24.3001" stroke="#5D4CAF" stroke-width="2" stroke-miterlimit="10" stroke-linecap="round" stroke-linejoin="round"/>
<path d="M30.5 18.1V3.09998C30.5 2.29998 29.9 1.5 28.9 1.5H15.2999C14.4999 1.5 13.7 2.09998 13.7 3.09998V13.7" stroke="#5D4CAF" stroke-width="2" stroke-miterlimit="10" stroke-linecap="round" stroke-linejoin="round"/>
<path d="M4.5 42.7H1.5" stroke="#5D4CAF" stroke-width="2" stroke-miterlimit="10" stroke-linecap="round" stroke-linejoin="round"/>
<path d="M13.5 19.7001H19.5" stroke="#5D4CAF" stroke-width="2" stroke-miterlimit="10" stroke-linecap="round" stroke-linejoin="round"/>
<path d="M26.1 7.70007H30.5" stroke="#5D4CAF" stroke-width="2" stroke-miterlimit="10" stroke-linecap="round" stroke-linejoin="round"/>
<path d="M26.1 13.7001H30.5" stroke="#5D4CAF" stroke-width="2" stroke-miterlimit="10" stroke-linecap="round" stroke-linejoin="round"/>
</g>
<defs>
<clipPath id="clip0_8_316">
<rect width="48" height="48" fill="white"/>
</clipPath>
</defs>
</svg>
