<svg width="48" height="48" viewBox="0 0 48 48" fill="none" xmlns="http://www.w3.org/2000/svg">
<g clip-path="url(#clip0_30_971)">
<path d="M34.058 16.958L27 9.016H25C21 9.016 18.702 5.926 20.79 2.524C20.883 2.3729 20.934 2.19976 20.938 2.02238C20.942 1.84501 20.8988 1.66976 20.8126 1.51464C20.7264 1.35951 20.6006 1.23009 20.448 1.13965C20.2954 1.04922 20.1214 1.00102 19.944 1C16.884 0.986005 15 1.188 15 4.016L19 15.016H25L30.076 20.94" stroke="#5D4CAF" stroke-width="2" stroke-linecap="round" stroke-linejoin="round"/>
<path d="M13.9421 16.958L18.0321 12.354" stroke="#5D4CAF" stroke-width="2" stroke-linecap="round" stroke-linejoin="round"/>
<path d="M24.0001 15.016H23.0001L17.9241 20.94" stroke="#5D4CAF" stroke-width="2" stroke-linecap="round" stroke-linejoin="round"/>
<path d="M24 8.948C27.364 8.478 29.118 5.632 27.21 2.524C27.117 2.3729 27.066 2.19976 27.062 2.02238C27.058 1.84501 27.1012 1.66976 27.1874 1.51464C27.2736 1.35951 27.3994 1.23009 27.552 1.13965C27.7046 1.04922 27.8786 1.00102 28.056 1C31.116 0.986005 33 1.188 33 4.016L30 12.266" stroke="#5D4CAF" stroke-width="2" stroke-linecap="round" stroke-linejoin="round"/>
<path d="M29.6921 22.542C29.5471 22.3496 29.4763 22.1114 29.4929 21.8712C29.5093 21.6308 29.6121 21.4046 29.7821 21.234L34.6001 16.416C34.6313 16.3838 34.6689 16.3587 34.7105 16.3423C34.7521 16.3259 34.7969 16.3186 34.8415 16.3209C34.8863 16.3232 34.9299 16.335 34.9697 16.3555C35.0095 16.376 35.0443 16.4048 35.0721 16.44C35.0721 16.44 45.8941 29.56 46.9861 42.668C47.0741 43.7252 46.7385 44.774 46.0533 45.5838C45.3681 46.3934 44.3893 46.8978 43.3321 46.986C43.2181 46.996 43.1081 47 42.9961 47C41.9935 46.999 41.0277 46.6214 40.2903 45.942C39.5527 45.2628 39.0973 44.3312 39.0141 43.332C38.2881 34.634 31.9201 25.5 29.6921 22.542Z" stroke="#5D4CAF" stroke-width="2" stroke-linecap="round" stroke-linejoin="round"/>
<path d="M18.308 22.542C18.4531 22.3496 18.5238 22.1114 18.5073 21.8712C18.4908 21.6308 18.3881 21.4046 18.218 21.234L13.4 16.416C13.3689 16.3838 13.3312 16.3587 13.2896 16.3423C13.248 16.3259 13.2033 16.3186 13.1586 16.3209C13.1139 16.3232 13.0702 16.335 13.0304 16.3555C12.9907 16.376 12.9558 16.4048 12.928 16.44C12.928 16.44 2.10604 29.56 1.01404 42.668C0.926043 43.7252 1.26157 44.774 1.94682 45.5838C2.63206 46.3934 3.6109 46.8978 4.66804 46.986C4.78204 46.996 4.89204 47 5.00404 47C6.0067 46.999 6.97242 46.6214 7.7099 45.942C8.44736 45.2628 8.90282 44.3312 8.98604 43.332C9.71204 34.634 16.08 25.5 18.308 22.542Z" stroke="#5D4CAF" stroke-width="2" stroke-linecap="round" stroke-linejoin="round"/>
<path d="M15.2581 27H32.7421" stroke="#5D4CAF" stroke-width="2" stroke-linecap="round" stroke-linejoin="round"/>
<path d="M24.0291 12.516C23.7529 12.516 23.5291 12.2921 23.5291 12.016C23.5291 11.7399 23.7529 11.516 24.0291 11.516" stroke="#5D4CAF" stroke-width="2"/>
<path d="M24.0291 12.516C24.3053 12.516 24.5291 12.2921 24.5291 12.016C24.5291 11.7399 24.3053 11.516 24.0291 11.516" stroke="#5D4CAF" stroke-width="2"/>
</g>
<defs>
<clipPath id="clip0_30_971">
<rect width="48" height="48" fill="white"/>
</clipPath>
</defs>
</svg>
