<svg width="48" height="48" viewBox="0 0 48 48" fill="none" xmlns="http://www.w3.org/2000/svg">
<path d="M18 13V12C18 9.08262 19.1589 6.28473 21.2218 4.22183C23.2847 2.15893 26.0826 1 29 1C31.9174 1 34.7153 2.15893 36.7782 4.22183C38.8411 6.28473 40 9.08262 40 12V47" stroke="#5D4CAF" stroke-width="2" stroke-linecap="round" stroke-linejoin="round"/>
<path d="M26 21C26 18.8783 25.1571 16.8434 23.6569 15.3431C22.1566 13.8429 20.1217 13 18 13C15.8783 13 13.8434 13.8429 12.3431 15.3431C10.8429 16.8434 10 18.8783 10 21V22C10 22.2652 10.1054 22.5196 10.2929 22.7071C10.4804 22.8946 10.7348 23 11 23H25C25.2652 23 25.5196 22.8946 25.7071 22.7071C25.8946 22.5196 26 22.2652 26 22V21Z" stroke="#5D4CAF" stroke-width="2" stroke-linecap="round" stroke-linejoin="round"/>
<path d="M18 33.5V29.5" stroke="#5D4CAF" stroke-width="2" stroke-linecap="round" stroke-linejoin="round"/>
<path d="M18 45.5V41.5" stroke="#5D4CAF" stroke-width="2" stroke-linecap="round" stroke-linejoin="round"/>
<path d="M25.4079 32.914L23.8779 29.218" stroke="#5D4CAF" stroke-width="2" stroke-linecap="round" stroke-linejoin="round"/>
<path d="M30 44L28.47 40.304" stroke="#5D4CAF" stroke-width="2" stroke-linecap="round" stroke-linejoin="round"/>
<path d="M10.592 32.914L12.122 29.218" stroke="#5D4CAF" stroke-width="2" stroke-linecap="round" stroke-linejoin="round"/>
<path d="M6 44L7.53 40.304" stroke="#5D4CAF" stroke-width="2" stroke-linecap="round" stroke-linejoin="round"/>
</svg>
