<svg width="24" height="24" viewBox="0 0 24 24" fill="none" xmlns="http://www.w3.org/2000/svg">
<path d="M16 6.5H8C6.89543 6.5 6 7.39543 6 8.5V21.5C6 22.6046 6.89543 23.5 8 23.5H16C17.1046 23.5 18 22.6046 18 21.5V8.5C18 7.39543 17.1046 6.5 16 6.5Z" stroke="#5D4CAF" stroke-linecap="round" stroke-linejoin="round"/>
<path d="M14 6.5L13.186 4.464C13.1249 4.33143 13.0286 4.21811 12.9077 4.13632C12.7868 4.05453 12.6458 4.00739 12.5 4H11.5C11.3542 4.00739 11.2132 4.05453 11.0923 4.13632C10.9714 4.21811 10.8751 4.33143 10.814 4.464L10 6.5" stroke="#5D4CAF" stroke-linecap="round" stroke-linejoin="round"/>
<path d="M12 0.5V4" stroke="#5D4CAF" stroke-linecap="round" stroke-linejoin="round"/>
<path d="M15.5 0.5H9.49999C8.87535 0.535289 8.28881 0.811709 7.86399 1.271L6.43799 3" stroke="#5D4CAF" stroke-linecap="round" stroke-linejoin="round"/>
<path d="M12.7591 14.934C12.6701 14.8128 12.5538 14.7143 12.4197 14.6465C12.2856 14.5786 12.1374 14.5432 11.9871 14.5432C11.8368 14.5432 11.6886 14.5786 11.5545 14.6465C11.4204 14.7143 11.3041 14.8128 11.2151 14.934L9.75209 16.934C9.64727 17.0812 9.58429 17.254 9.56985 17.4341C9.55541 17.6143 9.59005 17.7949 9.67009 17.957C9.74902 18.1171 9.87018 18.2527 10.0205 18.3491C10.1708 18.4455 10.3446 18.499 10.5231 18.504H13.4511C13.6298 18.4988 13.8038 18.4452 13.9543 18.3487C14.1048 18.2523 14.2263 18.1167 14.3056 17.9565C14.385 17.7962 14.4192 17.6175 14.4046 17.4393C14.3901 17.2611 14.3273 17.0902 14.2231 16.945L12.7591 14.934Z" stroke="#5D4CAF" stroke-linecap="round" stroke-linejoin="round"/>
<path d="M9 15C9.55228 15 10 14.5523 10 14C10 13.4477 9.55228 13 9 13C8.44772 13 8 13.4477 8 14C8 14.5523 8.44772 15 9 15Z" stroke="#5D4CAF" stroke-linecap="round" stroke-linejoin="round"/>
<path d="M12 13C12.5523 13 13 12.5523 13 12C13 11.4477 12.5523 11 12 11C11.4477 11 11 11.4477 11 12C11 12.5523 11.4477 13 12 13Z" stroke="#5D4CAF" stroke-linecap="round" stroke-linejoin="round"/>
<path d="M15 15C15.5523 15 16 14.5523 16 14C16 13.4477 15.5523 13 15 13C14.4477 13 14 13.4477 14 14C14 14.5523 14.4477 15 15 15Z" stroke="#5D4CAF" stroke-linecap="round" stroke-linejoin="round"/>
</svg>
