<svg width="32" height="32" viewBox="0 0 32 32" fill="none" xmlns="http://www.w3.org/2000/svg">
<g clip-path="url(#clip0_30_1584)">
<path d="M7.93311 9.00001C10.1423 9.00001 11.9331 7.20914 11.9331 5.00001C11.9331 2.79086 10.1423 1 7.93311 1C5.72397 1 3.93311 2.79086 3.93311 5.00001C3.93311 7.20914 5.72397 9.00001 7.93311 9.00001Z" stroke="#5D4CAF" stroke-width="1.33333" stroke-miterlimit="10" stroke-linecap="round" stroke-linejoin="round"/>
<path d="M14.8667 18.0666C14.8667 14.1999 11.6667 11.1333 7.93333 11.1333C4.2 11.1333 1 14.3333 1 18.0666V20.9999H3.93333L5 30.9999H11L11.9333 21.1333H14.8667V18.0666Z" stroke="#5D4CAF" stroke-width="1.33333" stroke-miterlimit="10" stroke-linecap="round" stroke-linejoin="round"/>
<path d="M23.2666 26.4667V31" stroke="#5D4CAF" stroke-width="1.33333" stroke-miterlimit="10" stroke-linecap="round" stroke-linejoin="round"/>
<path d="M26.6001 26.4667V31" stroke="#5D4CAF" stroke-width="1.33333" stroke-miterlimit="10" stroke-linecap="round" stroke-linejoin="round"/>
<path d="M28.9995 21.9333C28.9995 19.6666 28.9995 16.0666 28.9995 13.6666L27.2662 14.8666C26.5995 14.6 25.7995 14.3333 24.9995 14.3333C24.0662 14.3333 23.3995 14.4666 22.7329 14.8666L20.9995 13.6666C20.9995 17.1333 20.9995 18.4666 20.9995 21.9333C19.6662 23.2666 18.8662 25.6666 18.8662 28.3333V29.6666C18.8662 30.4666 19.3995 31 20.1995 31H29.6662C30.4662 31 30.9995 30.4666 30.9995 29.6666V28.3333C30.9995 25.6666 30.3329 23.2666 28.9995 21.9333Z" stroke="#5D4CAF" stroke-width="1.33333" stroke-miterlimit="10" stroke-linecap="round" stroke-linejoin="round"/>
<path d="M21 20.2L23.1333 22.3333C24.2 23.4 25.8 23.4 26.8667 22.3333L29 20.2" stroke="#5D4CAF" stroke-width="1.33333" stroke-miterlimit="10" stroke-linecap="round" stroke-linejoin="round"/>
</g>
<defs>
<clipPath id="clip0_30_1584">
<rect width="32" height="32" fill="white"/>
</clipPath>
</defs>
</svg>
