<svg width="820" height="343" viewBox="0 0 820 343" fill="none" xmlns="http://www.w3.org/2000/svg">
<g clip-path="url(#clip0_37_1437)">
<path d="M492.17 337.74L350.68 333.72C350.68 333.72 361.33 270.01 327.16 252.33C303.87 240.27 283.2 183.94 289.08 145.61C289.16 145.1 289.24 144.59 289.33 144.09C292.31 126.93 300.83 113.64 317.12 110.03C369.78 98.37 407.36 107.41 407.36 107.41C407.36 107.41 416.06 107.52 428.95 109.94C429.41 110.02 429.87 110.11 430.33 110.21C466.82 117.36 534.27 142.82 537.19 233.22C541.21 357.42 492.17 337.72 492.17 337.72V337.74Z" fill="#3F3D56"/>
<path d="M428.95 109.95C428.71 116.43 427.24 122.87 424.56 128.99C419 141.68 408.86 151.37 396.02 156.28C357.56 171 312.68 156.4 289.98 140.57C289.89 141.07 288.09 150.56 288.01 151.07C298.06 157.95 347.25 164.58 356.58 164.58C370.75 164.58 384.39 162.23 396.52 157.58C409.71 152.53 420.12 142.57 425.83 129.54C428.56 123.32 430.06 116.79 430.33 110.21C429.87 110.11 429.41 110.02 428.95 109.94V109.95Z" fill="#6C63FF"/>
<path d="M439.41 118.2L416.86 61.49C416.86 61.49 443.93 15.09 422.66 9.94C401.39 4.78 379.48 32.49 379.48 32.49C379.48 32.49 338.88 18.31 323.42 29.91C323.42 29.91 297.64 -6.18 282.18 0.91C266.71 8 287.68 59.09 287.68 59.09C287.68 59.09 255.76 105.95 280.25 133.01C304.74 160.08 396.89 181.99 439.42 118.19L439.41 118.2Z" fill="#3F3D56"/>
<path d="M183.482 336H611V334H183.482C183.217 334 183 334.45 183 335C183 335.55 183.217 336 183.482 336Z" fill="#3F3D56"/>
<path d="M487.78 303.8C495.46 307.22 503.48 310.7 511.88 310.37C520.28 310.04 529.11 304.63 530.42 296.33C531.1 292.04 529.76 287.45 531.4 283.43C533.61 278.03 540.73 275.94 546.26 277.79C551.8 279.64 555.86 284.42 558.78 289.47C564.24 298.93 566.42 311.35 560.57 320.57C555.5 328.56 545.88 332.18 536.94 335.28C525.02 339.41 511.72 343.5 500.17 338.43C488.56 333.33 482.23 318.6 486.53 306.67" fill="#3F3D56"/>
<path d="M360.74 92.71C360.74 92.71 346.86 87.16 337.85 94.1L348.26 110.06L360.75 92.72L360.74 92.71Z" fill="#6C63FF"/>
<path d="M287.89 165.55L313.56 302.23C313.56 302.23 274.71 341.78 324.66 341.08C374.61 340.39 360.04 314.72 360.04 314.72L344.08 196.08" fill="#3F3D56"/>
<path d="M323.4 342.09C309.87 342.09 301.69 338.99 299.07 332.86C294.3 321.7 309.83 304.69 312.49 301.89L295.23 199.71L297.2 199.38L314.63 302.56L314.27 302.92C314.09 303.1 296.33 321.37 300.91 332.07C303.26 337.57 311.23 340.26 324.65 340.07C343.3 339.81 355.32 335.9 359.42 328.77C363.11 322.35 359.21 315.27 359.17 315.2L359.08 315.03L359.05 314.84L347.95 232.28L349.93 232.01L361.01 314.39C361.67 315.64 365.12 322.85 361.17 329.75C356.64 337.65 344.36 341.8 324.68 342.07C324.25 342.07 323.83 342.07 323.41 342.07L323.4 342.09Z" fill="#2F2E41"/>
<path d="M353.1 165.55L378.77 302.23C378.77 302.23 339.92 341.78 389.87 341.08C439.82 340.39 425.25 314.72 425.25 314.72L409.29 196.08" fill="#3F3D56"/>
<path d="M388.61 342.09C375.08 342.09 366.9 338.99 364.28 332.86C359.51 321.72 375.01 304.73 377.69 301.9L367.38 246.9L369.35 246.53L379.85 302.55L379.48 302.92C379.3 303.1 361.54 321.37 366.12 332.07C368.47 337.57 376.45 340.27 389.86 340.07C408.52 339.81 420.55 335.9 424.64 328.75C428.33 322.31 424.42 315.27 424.38 315.2L424.28 315.03L408.3 196.2L410.28 195.93L426.21 314.39C426.87 315.64 430.32 322.85 426.37 329.75C421.84 337.65 409.56 341.8 389.88 342.07C389.45 342.07 389.03 342.07 388.61 342.07V342.09Z" fill="#2F2E41"/>
</g>
<defs>
<clipPath id="clip0_37_1437">
<rect width="888" height="342.09" fill="white" transform="translate(-68)"/>
</clipPath>
</defs>
</svg>
