<svg width="720" height="749" viewBox="0 0 720 749" fill="none" xmlns="http://www.w3.org/2000/svg">
<g clip-path="url(#clip0_16_53)">
<path d="M392.184 710.703C573.232 710.703 720 692.799 720 670.714C720 648.628 573.232 630.724 392.184 630.724C211.136 630.724 64.3679 648.628 64.3679 670.714C64.3679 692.799 211.136 710.703 392.184 710.703Z" fill="#3F3D56"/>
<path d="M554.762 626.465L560.415 645.483C560.415 645.483 587.644 676.196 577.796 684.52C567.948 692.845 545.853 648.961 545.853 648.961L541.781 627.491L554.762 626.465Z" fill="#FFB8B8"/>
<path d="M502.524 479.264L510.766 476.265C510.766 476.265 523.585 480.264 525.417 494.26C527.248 508.256 540.983 579.238 540.983 579.238C540.983 579.238 546.477 582.237 542.815 587.236C539.152 592.234 561.128 637.223 561.128 637.223L543.73 646.22C543.73 646.22 508.934 606.231 508.934 602.232C508.934 598.233 509.85 594.234 509.85 590.235C509.85 586.236 508.934 586.236 509.85 583.237C510.461 580.623 510.769 577.936 510.766 575.239L504.356 559.243L502.524 479.264Z" fill="#4E3E9D"/>
<path d="M82.7944 547.842C128.52 547.842 165.589 465.266 165.589 363.402C165.589 261.539 128.52 178.962 82.7944 178.962C37.0683 178.962 0 261.539 0 363.402C0 465.266 37.0683 547.842 82.7944 547.842Z" fill="#4E3E9D"/>
<path d="M82.0343 365.315C86.1643 285.03 94.4855 230.799 94.5692 230.261L92.7637 229.927C92.6801 230.466 84.3441 284.783 80.2075 365.172C76.39 439.367 75.469 551.59 92.7633 664.879L94.5696 664.551C77.3048 551.454 78.2236 439.401 82.0343 365.315Z" fill="#3F3D56"/>
<path d="M156.794 325.998L81.9343 369.742L82.7986 371.505L157.658 327.761L156.794 325.998Z" fill="#3F3D56"/>
<path d="M3.77166 347.922L2.90784 349.686L77.7777 393.408L78.6416 391.645L3.77166 347.922Z" fill="#3F3D56"/>
<path d="M278.886 504.784C341.459 504.784 392.184 391.784 392.184 252.392C392.184 113 341.459 0 278.886 0C216.314 0 165.589 113 165.589 252.392C165.589 391.784 216.314 504.784 278.886 504.784Z" fill="#E6E6E6"/>
<path d="M277.51 254.977C283.163 145.095 294.552 70.874 294.666 70.1369L292.861 69.803C292.746 70.5406 281.342 144.849 275.683 254.834C270.46 356.345 269.2 509.885 292.86 664.879L294.667 664.551C271.036 509.748 272.294 356.379 277.51 254.977Z" fill="#3F3D56"/>
<path d="M380.308 201.532L277.869 261.393L278.733 263.156L381.172 203.295L380.308 201.532Z" fill="#3F3D56"/>
<path d="M170.591 231.534L169.727 233.297L272.181 293.128L273.045 291.365L170.591 231.534Z" fill="#3F3D56"/>
<path d="M184.503 603.135C207.882 603.135 226.834 560.915 226.834 508.834C226.834 456.754 207.882 414.534 184.503 414.534C161.124 414.534 142.172 456.754 142.172 508.834C142.172 560.915 161.124 603.135 184.503 603.135Z" fill="#E6E6E6"/>
<path d="M184.466 512.897L184.716 513.409L222.99 491.042L222.126 489.279L184.546 511.24C186.625 469.45 190.879 441.396 190.964 440.844L189.159 440.51C189.065 441.113 184.012 474.427 182.218 522.633L144.314 500.483L143.451 502.247L181.724 524.613L182.181 523.68C180.746 563.467 181.55 613.216 189.158 663.054L190.965 662.726C182.67 608.388 182.487 554.151 184.466 512.897Z" fill="#3F3D56"/>
<path d="M513.729 384.363C499.01 356.975 469.89 355.699 469.89 355.699C469.89 355.699 441.514 351.702 423.311 393.415C406.344 432.295 382.928 469.834 419.541 478.935L426.155 456.267L430.25 480.623C435.463 481.036 440.693 481.134 445.916 480.917C485.125 479.523 522.466 481.325 521.264 465.831C519.666 445.233 527.892 410.716 513.729 384.363Z" fill="#2F2E41"/>
<path d="M411.134 603.74C410.723 606.603 410.127 609.431 409.349 612.201C408.474 614.913 407.122 617.42 406.321 620.159C403.769 628.891 407.307 638.626 412.957 645.366C417.842 651.178 424.169 655.315 431.168 657.274C436.265 658.686 441.565 658.889 446.817 659.085C461.363 659.628 476.282 660.114 490.065 654.966C494.422 653.299 498.628 651.195 502.63 648.681C503.896 648.016 505.01 647.05 505.89 645.854C506.941 644.206 507.075 642.068 507.066 640.054C507.035 633.264 505.785 626.508 506.082 619.725C506.246 615.969 506.885 612.215 506.571 608.469C506.148 604.231 504.537 600.238 501.957 597.036C499.378 593.835 495.956 591.581 492.16 590.582C488.25 589.658 484.195 590.161 480.214 590.583C469.882 591.676 459.505 592.187 449.125 592.114C438.52 592.039 427.98 590.256 417.427 590.07C414.306 590.015 414.369 591.075 413.375 594.401C412.46 597.463 411.712 600.581 411.134 603.74Z" fill="#2F2E41"/>
<path d="M369.662 598.222C366.811 597.432 363.872 597.088 360.933 597.2C357.843 597.412 354.828 598.334 352.086 599.904C349.344 601.473 346.936 603.657 345.019 606.311C343.121 609.005 341.757 612.101 341.014 615.402C340.271 618.702 340.166 622.136 340.706 625.483C341.417 629.109 342.581 632.612 344.165 635.892C346.48 641.066 349.256 646.228 353.542 649.543C356.122 651.365 358.902 652.822 361.818 653.881L384.39 663.245C387.71 664.623 391.031 666.001 394.385 667.278C411.223 673.689 428.79 677.535 446.591 678.707C452.011 679.063 457.513 679.162 462.8 677.803C464.092 677.616 465.275 676.912 466.12 675.828C466.55 675.001 466.804 674.079 466.861 673.13L468.25 662.422C468.561 660.931 468.521 659.377 468.132 657.908C467.496 656.108 465.901 654.976 464.38 654.014C449.541 644.628 432.214 639.45 419.724 626.568C416.783 623.536 414.322 618.729 410.75 616.669C406.698 614.333 401.927 612.999 397.739 610.847C388.585 606.141 379.584 600.733 369.662 598.222Z" fill="#2F2E41"/>
<path opacity="0.1" d="M392.197 612.657C400.175 615.41 433.859 634.484 439.633 641.143C438.859 641.45 412.602 625.245 411.814 624.985C404.652 622.618 397.45 620.235 390.649 616.771C389.281 616.074 381.76 612.799 382.101 610.898C382.485 608.752 390.781 612.168 392.197 612.657Z" fill="black"/>
<path d="M491.731 684.261C492.184 684.297 492.634 684.151 492.995 683.851C493.155 683.625 493.271 683.367 493.339 683.092C493.407 682.817 493.425 682.53 493.391 682.248L493.354 667.66C489.544 665.661 485.283 665.021 481.101 664.405L461.586 661.532C462.035 661.598 458.535 670.788 459.072 672.015C460.017 674.178 467.245 676.094 469.285 677.115C476.376 680.664 483.744 684.566 491.731 684.261Z" fill="#FFB8B8"/>
<path d="M430.504 667.609C426.82 668.256 422.707 668.827 420.321 671.985C417.295 675.991 418.583 681.962 420.027 686.924C420.241 687.926 420.671 688.858 421.282 689.642C422.267 690.712 423.777 690.869 425.158 690.965C428.518 691.2 432.094 691.383 435.03 689.568C436.36 688.6 437.641 687.552 438.865 686.429C441.027 684.844 443.407 683.646 445.916 682.879C450.521 681.284 455.263 680.208 460.069 679.667C461.962 679.572 463.837 679.208 465.644 678.585C466.55 678.261 467.376 677.715 468.057 676.986C468.738 676.258 469.256 675.369 469.571 674.387C470.251 671.736 468.852 669.033 467.51 666.708C465.838 663.812 464.067 660.762 461.575 658.63C457.939 655.52 456.14 657.907 452.477 659.898C445.551 663.663 438.143 666.263 430.504 667.609Z" fill="#FFB8B8"/>
<path d="M420.876 671.264L397.481 663.649C394.676 662.574 391.743 661.948 388.774 661.792C385.807 661.794 382.703 662.865 380.779 665.352C378.965 667.697 378.446 670.902 377.993 673.941L377.026 680.444C376.381 683.723 376.198 687.091 376.484 690.43C376.927 693.743 378.463 697.053 381.132 698.657C384.369 700.602 388.337 699.652 391.95 698.838C399.247 697.196 406.671 696.319 414.121 696.22C416.921 696.183 419.858 696.222 422.333 694.778C425.274 693.061 427.034 689.431 427.336 685.78C427.797 680.226 426.115 672.97 420.876 671.264Z" fill="#2F2E41"/>
<path d="M500.927 664.628C503.96 664.043 506.636 662.145 509.543 661.024C513.633 659.447 518.066 659.447 522.4 659.465C523.991 659.471 525.685 659.51 527.009 660.481C528.918 661.881 529.408 664.682 529.732 667.182L531.691 682.266C532.059 685.104 532.425 688.017 531.851 690.812C531.276 693.608 529.546 696.302 527.027 697.024C523.968 697.899 520.969 695.747 518.08 694.334C510.861 690.8 502.468 691.703 494.941 689.062C493.544 688.572 492.047 687.823 491.477 686.335C491.22 685.497 491.128 684.608 491.208 683.728C491.337 678.88 490.408 672.259 491.734 667.625C492.926 663.458 497.542 664.628 500.927 664.628Z" fill="#2F2E41"/>
<path d="M550.436 592.15C555.109 590.859 559.957 590.494 564.748 591.073C568.574 591.537 572.516 592.71 575.309 595.626C578.709 599.175 579.801 604.665 579.893 609.823C580.046 620.084 576.954 630.089 571.138 638.15C569.722 640.182 568.035 641.97 566.133 643.456C564.086 644.867 561.902 646.026 559.621 646.912L509.072 668.869C495.774 674.645 482.429 680.438 468.558 684.246C468.178 684.447 467.765 684.563 467.343 684.586C466.922 684.609 466.5 684.54 466.104 684.381C465.707 684.223 465.344 683.979 465.036 683.665C464.728 683.35 464.48 682.971 464.309 682.549C459.877 675.577 456.162 668.092 453.23 660.232C453.098 659.981 453.016 659.701 452.992 659.413C452.967 659.124 453 658.834 453.087 658.56C453.272 658.256 453.531 658.014 453.834 657.86L489.587 635.238C492.211 633.73 494.655 631.875 496.864 629.716C498.412 628.064 499.677 626.124 500.601 623.988C501.342 622.283 501.411 618.26 502.358 617C503.284 615.767 506.455 615.668 507.919 615.183C509.985 614.486 512.008 613.644 513.974 612.663C521.972 608.722 529.094 602.997 536.761 598.384C541.057 595.678 545.653 593.583 550.436 592.15Z" fill="#2F2E41"/>
<path opacity="0.1" d="M530.167 609.044C524.024 614.125 516.071 618.795 509.983 624.01C507.905 625.789 473.268 647.234 472.779 650.082C478.458 651.136 514.639 623.262 519.815 620.481C524.992 617.7 529.581 613.778 534.128 609.884C535.286 608.892 540.197 605.909 536.871 604.801C534.997 604.177 531.55 608.029 530.167 609.044Z" fill="black"/>
<path d="M468.644 453.271C487.861 453.271 503.44 436.262 503.44 415.281C503.44 394.3 487.861 377.291 468.644 377.291C449.426 377.291 433.848 394.3 433.848 415.281C433.848 436.262 449.426 453.271 468.644 453.271Z" fill="#FFB8B8"/>
<path d="M483.295 447.273C483.295 447.273 477.801 462.269 487.873 468.267C497.946 474.266 456.74 522.253 456.74 522.253L438.426 464.268C438.426 464.268 453.993 458.27 451.246 442.274L483.295 447.273Z" fill="#FFB8B8"/>
<path d="M460.403 488.262L482.579 461.533L512.597 478.264L508.018 596.233L500.693 605.231C500.693 605.231 469.56 635.223 421.944 610.23C421.944 610.23 405.462 595.234 406.377 572.24C407.293 549.246 404.546 546.246 404.546 546.246L403.63 465.268L448.839 455.582L460.403 488.262Z" fill="#4E3E9D"/>
<path d="M358.718 615.468L353.065 634.486C353.065 634.486 325.836 665.199 335.684 673.523C345.532 681.848 367.627 637.964 367.627 637.964L371.699 616.494L358.718 615.468Z" fill="#FFB8B8"/>
<path d="M410.956 468.267L402.714 465.268C402.714 465.268 389.895 469.267 388.063 483.263C386.232 497.259 372.497 568.241 372.497 568.241C372.497 568.241 367.003 571.24 370.665 576.239C374.328 581.237 352.352 626.225 352.352 626.225L369.75 635.223C369.75 635.223 404.546 595.234 404.546 591.235C404.546 587.236 403.63 583.237 403.63 579.238C403.63 575.239 404.546 575.239 403.63 572.24C403.019 569.626 402.711 566.939 402.714 564.242L409.124 548.246L410.956 468.267Z" fill="#4E3E9D"/>
<path d="M507.222 381.723L478.452 365.128L438.723 371.916L430.503 411.897L450.965 411.03L456.681 396.342V410.787L466.122 410.387L471.603 387.003L475.027 411.897L508.592 411.142L507.222 381.723Z" fill="#2F2E41"/>
<path d="M303.28 638.912V696.577H141.954C141.955 681.284 147.52 666.617 157.425 655.803C167.33 644.989 180.763 638.913 194.771 638.912C209.898 633.764 227.388 632.124 246.361 632.664C264.262 633.164 283.483 635.613 303.28 638.912Z" fill="#FF6584"/>
<path d="M280.234 683.998H356.097C357.37 683.998 358.591 684.55 359.492 685.533C360.392 686.516 360.898 687.849 360.898 689.24C360.898 690.63 360.392 691.963 359.492 692.946C358.591 693.93 357.37 694.482 356.097 694.482H280.234V683.998Z" fill="#3F3D56"/>
<path d="M293.373 589.563L313.707 562.652C314.176 561.585 314.931 560.698 315.872 560.111C316.813 559.524 317.896 559.263 318.976 559.365C320.056 559.466 321.083 559.923 321.919 560.677C322.755 561.43 323.361 562.444 323.656 563.583L331.675 594.493L293.373 589.563Z" fill="#3F3D56"/>
<path d="M268.711 603.269L276.393 569.405C276.393 568.222 276.723 567.066 277.339 566.093C277.956 565.119 278.829 564.373 279.843 563.955C280.857 563.536 281.964 563.464 283.016 563.749C284.068 564.034 285.016 564.662 285.733 565.55L305.201 589.639L268.711 603.269Z" fill="#FF6584"/>
<path d="M141.953 696.579H157.318V732.225C157.318 734.428 156.92 736.609 156.148 738.645C155.376 740.68 154.244 742.529 152.818 744.087C151.391 745.644 149.697 746.88 147.833 747.723C145.969 748.566 143.971 749 141.953 749V696.579Z" fill="#FF6584"/>
<path d="M277.353 686.094H353.216C354.489 686.094 355.71 686.647 356.611 687.63C357.511 688.613 358.017 689.946 358.017 691.337C358.017 692.727 357.511 694.06 356.611 695.043C355.71 696.026 354.489 696.579 353.216 696.579H277.353V686.094Z" fill="#FF6584"/>
<path opacity="0.2" d="M303.28 638.912V696.257C295.486 697.161 287.606 696.125 280.231 693.227C272.857 690.328 266.18 685.643 260.702 679.523C255.224 673.403 251.088 666.007 248.604 657.891C246.12 649.775 245.353 641.15 246.361 632.664C264.262 633.164 283.483 635.613 303.28 638.912Z" fill="black"/>
<path d="M303.281 696.579C331.92 696.579 355.136 671.231 355.136 639.964C355.136 608.696 331.92 583.349 303.281 583.349C274.642 583.349 251.426 608.696 251.426 639.964C251.426 671.231 274.642 696.579 303.281 696.579Z" fill="#FF6584"/>
<path d="M353.216 658.835C356.398 658.835 358.977 652.264 358.977 644.157C358.977 636.051 356.398 629.479 353.216 629.479C350.034 629.479 347.454 636.051 347.454 644.157C347.454 652.264 350.034 658.835 353.216 658.835Z" fill="#3F3D56"/>
<path d="M339.292 632.625C340.087 632.625 340.732 630.982 340.732 628.955C340.732 626.929 340.087 625.286 339.292 625.286C338.496 625.286 337.851 626.929 337.851 628.955C337.851 630.982 338.496 632.625 339.292 632.625Z" fill="#3F3D56"/>
<path d="M349.855 625.286C350.65 625.286 351.295 623.643 351.295 621.616C351.295 619.59 350.65 617.947 349.855 617.947C349.059 617.947 348.414 619.59 348.414 621.616C348.414 623.643 349.059 625.286 349.855 625.286Z" fill="#3F3D56"/>
<path d="M298.93 582.719C298.93 582.719 296.048 577.245 296.048 573.906L298.93 582.719Z" fill="#3F3D56"/>
<path d="M300.198 579.178C300.198 579.178 301.769 573.102 303.956 570.768L300.198 579.178Z" fill="#3F3D56"/>
</g>
<defs>
<clipPath id="clip0_16_53">
<rect width="720" height="749" fill="white"/>
</clipPath>
</defs>
</svg>
