<svg width="747" height="510" viewBox="0 0 747 510" fill="none" xmlns="http://www.w3.org/2000/svg">
<g clip-path="url(#clip0_37_942)">
<path d="M123.439 360.068C119.839 360.455 115.913 361.037 111.736 361.888C94.0261 365.497 93.6585 377.533 93.8137 380.292L93.6934 380.217C91.9127 383.076 90.7974 385.969 90.1233 388.7L89.3123 351.813C89.8367 350.719 90.3139 349.478 90.7117 348.206C92.0374 352.292 94.2105 356.152 96.0837 355.896C98.5195 355.563 99.5815 348.39 99.1271 343.293C102.225 347.285 107.438 351.555 109.404 350.238C110.976 349.186 110.044 344.855 108.328 340.917C111.903 343.073 115.862 344.49 117.091 343.121C118.767 341.253 114.75 334.88 111.045 331.323C116.004 331.786 122.311 330.995 122.725 328.736C123.066 326.875 119.312 324.526 115.294 323.015C119.33 321.95 123.103 320.094 122.978 318.259C122.829 316.078 117.227 314.617 112.393 314.395C116.039 311.54 119.389 307.594 118.364 305.81C117.423 304.169 113.042 304.805 109 306.25C111.392 302.827 113.073 298.97 111.793 297.65C110.197 296.006 104.535 298.844 100.671 301.981C101.423 297.094 101.043 290.926 98.8525 290.368C97.0204 289.901 94.4237 293.489 92.6434 297.398C91.8566 293.296 90.2637 289.401 88.4254 289.401C85.8065 289.401 83.6835 297.304 83.6835 302.452C83.6835 302.743 83.6912 303.017 83.7045 303.279C83.4417 302.974 83.1404 302.655 82.7969 302.321C79.1066 298.734 71.9632 294.753 70.1387 296.633C68.8579 297.953 70.5397 301.81 72.9317 305.233C68.8896 303.788 64.5086 303.152 63.5668 304.793C62.3014 306.997 67.7104 312.501 72.1071 315.169C71.8428 315.138 71.5651 315.111 71.2696 315.091C66.1374 314.74 58.1153 316.322 57.937 318.937C57.8119 320.772 61.5856 322.628 65.6211 323.693C61.6033 325.204 57.8497 327.553 58.1904 329.414C58.6039 331.673 64.911 332.464 69.87 332.001C66.1652 335.558 62.148 341.931 63.8245 343.799C65.0531 345.168 69.0122 343.751 72.587 341.595C70.8713 345.533 69.9396 349.864 71.511 350.916C73.5877 352.307 79.2832 347.468 82.2861 343.304C81.9801 348.398 83.198 355.396 85.6144 355.672C86.6249 355.787 87.6957 354.709 88.6621 353.048L85.9251 392.697C85.2853 397.314 89.3777 400.327 89.7434 402.229L90.3338 429.078C89.6675 427.166 88.7701 425.209 87.5604 423.267L87.4401 423.342C87.5953 420.582 87.2275 408.548 69.5179 404.939C65.3411 404.087 61.4144 403.506 57.815 403.118C53.5663 402.661 51.9089 408.481 55.7472 410.361C61.3058 413.084 66.5346 416.515 69.26 420.577C76.2278 430.964 85.8554 424.96 87.2242 424.028C88.7531 426.575 89.7556 429.141 90.3888 431.583L90.7023 445.841C90.6255 446.179 90.5724 446.367 90.5682 446.382L90.7151 446.425L91.4739 480.932L98.5118 480.875L95.9944 445.604C96.4175 443.701 97.7189 437.219 95.9944 430.488L93.4771 402.774C93.4708 402.753 93.62 403.502 93.4771 402.774L90.1934 391.885C90.6709 388.516 91.779 384.727 94.0297 380.977C95.3985 381.909 105.026 387.913 111.994 377.527C114.719 373.464 119.948 370.034 125.507 367.311C129.345 365.431 127.688 359.61 123.439 360.068ZM91.2889 441.71L91.1562 435.676C91.4238 437.957 91.4103 440.017 91.2889 441.71Z" fill="#F2F2F2"/>
<path d="M662.053 360.068C658.454 360.455 654.527 361.037 650.35 361.888C632.64 365.497 632.273 377.533 632.428 380.292L632.308 380.217C630.527 383.076 629.412 385.969 628.738 388.7L627.927 351.813C628.451 350.719 628.928 349.478 629.326 348.206C630.652 352.292 632.825 356.152 634.698 355.896C637.134 355.563 638.196 348.39 637.741 343.293C640.839 347.285 646.052 351.555 648.018 350.238C649.59 349.186 648.658 344.855 646.942 340.917C650.517 343.073 654.476 344.49 655.705 343.121C657.381 341.253 653.364 334.88 649.659 331.323C654.618 331.786 660.926 330.995 661.339 328.736C661.68 326.875 657.926 324.526 653.908 323.015C657.944 321.95 661.718 320.094 661.592 318.259C661.444 316.078 655.841 314.617 651.008 314.395C654.653 311.54 658.003 307.594 656.979 305.81C656.037 304.169 651.656 304.805 647.614 306.25C650.006 302.827 651.688 298.97 650.407 297.65C648.811 296.006 643.149 298.844 639.285 301.981C640.037 297.094 639.657 290.926 637.467 290.368C635.635 289.901 633.038 293.489 631.258 297.398C630.471 293.296 628.878 289.401 627.04 289.401C624.421 289.401 622.298 297.304 622.298 302.452C622.298 302.743 622.306 303.017 622.319 303.279C622.056 302.974 621.755 302.655 621.411 302.321C617.721 298.734 610.577 294.753 608.753 296.633C607.472 297.953 609.154 301.81 611.546 305.233C607.504 303.788 603.123 303.152 602.181 304.793C600.916 306.997 606.325 312.501 610.721 315.169C610.457 315.138 610.179 315.111 609.884 315.091C604.752 314.74 596.73 316.322 596.551 318.937C596.426 320.772 600.2 322.628 604.235 323.693C600.218 325.204 596.464 327.553 596.805 329.414C597.218 331.673 603.525 332.464 608.484 332.001C604.779 335.558 600.762 341.931 602.439 343.799C603.667 345.168 607.626 343.751 611.201 341.595C609.486 345.533 608.554 349.864 610.125 350.916C612.202 352.307 617.897 347.468 620.9 343.304C620.594 348.398 621.812 355.396 624.229 355.672C625.239 355.787 626.31 354.709 627.276 353.048L624.539 392.697C623.9 397.314 627.992 400.327 628.358 402.229L628.948 429.078C628.282 427.166 627.384 425.209 626.175 423.267L626.054 423.342C626.21 420.582 625.842 408.548 608.132 404.939C603.955 404.087 600.029 403.506 596.429 403.118C592.181 402.661 590.523 408.481 594.361 410.361C599.92 413.084 605.149 416.515 607.874 420.577C614.842 430.964 624.47 424.96 625.838 424.028C627.367 426.575 628.37 429.141 629.003 431.583L629.317 445.841C629.24 446.179 629.187 446.367 629.183 446.382L629.329 446.425L630.088 480.932L637.126 480.875L634.609 445.604C635.032 443.701 636.333 437.219 634.609 430.488L632.091 402.774C632.085 402.753 632.234 403.502 632.091 402.774L628.808 391.885C629.285 388.516 630.393 384.727 632.644 380.977C634.013 381.909 643.64 387.913 650.608 377.527C653.333 373.464 658.562 370.034 664.121 367.311C667.959 365.431 666.302 359.61 662.053 360.068ZM629.903 441.71L629.771 435.676C630.038 437.957 630.024 440.017 629.903 441.71Z" fill="#F2F2F2"/>
<path d="M552.783 247.141L549.483 168.399C549.483 168.399 545.776 121.652 542.81 105.327C539.845 89.0025 519.826 93.4546 519.826 93.4546L522.051 140.202L531.647 188.042L539.117 253.187C538.732 255.071 538.514 257.12 538.514 259.27C538.514 268.397 542.322 275.795 547.02 275.795C551.718 275.795 555.526 268.397 555.526 259.27C555.526 254.469 554.466 250.16 552.783 247.141Z" fill="#FFB6B6"/>
<path d="M392.137 226.738C395.647 222.555 399.849 219.712 403.623 218.618L448.012 168.399C448.012 168.399 451.719 121.652 454.684 105.327C457.65 89.0025 477.668 93.4546 477.668 93.4546L475.444 140.202L462.84 190.66L410.899 234.793C409.992 236.447 408.88 238.1 407.548 239.688C401.229 247.22 392.657 250.428 388.401 246.852C384.145 243.276 385.818 234.271 392.137 226.738Z" fill="#FFB6B6"/>
<path d="M489.799 87.1474L494.948 67.3364L515.007 66.3707L521.008 93.6796L489.799 87.1474Z" fill="#FFB6B6"/>
<path opacity="0.1" d="M489.799 87.1474L494.948 67.3364L515.007 66.3707L521.008 93.6796L489.799 87.1474Z" fill="black"/>
<path d="M438.577 411.706L419.789 410.632L422.254 468.338L434.984 469.067L438.577 411.706Z" fill="#FFB6B6"/>
<path d="M420.625 450.092L427.149 453.071L427.141 457.028C427.141 457.028 428.714 452.448 437.163 451.448L438.171 455.286C438.171 455.286 441.447 459.05 440.885 465.858L438.735 484.089L432.364 483.943L431.335 471.256C431.335 471.256 429.58 468.377 421.495 482.057C421.495 482.057 412.59 484.303 398.799 479.675C396.904 479.039 395.587 477.268 395.612 475.268C395.626 474.163 396.057 473.143 397.44 472.777C400.962 471.845 404.4 473.027 406.674 470.214C408.948 467.401 420.625 450.092 420.625 450.092Z" fill="#2F2E41"/>
<path d="M539.41 411.706L520.622 410.632L523.087 468.338L535.817 469.067L539.41 411.706Z" fill="#FFB6B6"/>
<path d="M521.458 450.092L527.982 453.071L527.974 457.028C527.974 457.028 529.547 452.448 537.996 451.448L539.004 455.286C539.004 455.286 542.28 459.05 541.718 465.858L539.568 484.089L533.197 483.943L532.168 471.256C532.168 471.256 530.413 468.377 522.328 482.057C522.328 482.057 513.423 484.303 499.632 479.675C497.737 479.039 496.42 477.268 496.445 475.268C496.459 474.163 496.89 473.143 498.273 472.777C501.795 471.845 505.233 473.027 507.507 470.214C509.781 467.401 521.458 450.092 521.458 450.092Z" fill="#2F2E41"/>
<path d="M505.222 79.0031C517.506 79.0031 527.464 69.0367 527.464 56.7424C527.464 44.4481 517.506 34.4816 505.222 34.4816C492.937 34.4816 482.979 44.4481 482.979 56.7424C482.979 69.0367 492.937 79.0031 505.222 79.0031Z" fill="#FFB6B6"/>
<path d="M517.835 60.4429C517.835 60.4429 508.056 44.4286 498.267 46.1962C488.478 47.9638 483.374 49.5596 483.374 49.5596C483.374 49.5596 479.388 36.7914 492.772 30.6656C492.772 30.6656 473.832 14.7949 494.017 4.60967C514.203 -5.57558 526.764 4.29557 526.764 4.29557C526.764 4.29557 543.472 18.4761 524.948 31.5997C524.948 31.5997 540.98 49.8772 524.787 67.3364C524.787 67.3364 527.646 54.0422 523.757 56.7675C519.869 59.4929 517.835 60.4429 517.835 60.4429Z" fill="#2F2E41"/>
<path d="M520.197 88.6315L489.799 84.9213L466.444 103.843C466.444 103.843 454.829 136.233 463.479 155.785C463.686 156.253 463.849 188.805 463.849 188.805H528.435C528.435 188.805 528.372 166.648 530.84 158.624C531.192 157.477 531.597 156.62 532.06 156.156C535.767 152.446 544.664 128.701 540.216 118.312C535.767 107.924 520.197 88.6315 520.197 88.6315Z" fill="#6C63FF"/>
<path d="M463.478 187.321L422.7 317.175L413.803 419.575H438.641L459.771 324.595L488.871 269.615L517.602 426.995H542.673L542.069 214.034L528.382 187.321H463.478Z" fill="#2F2E41"/>
<path d="M695 481H-7V483H695V481Z" fill="#3F3D56"/>
<path d="M382.91 213.602C375.506 201.669 358.231 198.862 345.401 204.554C332.57 210.246 323.701 222.383 317.672 235.067C311.643 247.751 307.85 261.418 301.654 274.021C283.421 311.103 246.498 335.322 223.273 369.494C205.822 395.17 196.58 426.345 197.217 457.391C197.461 469.283 199.383 481.794 206.798 491.089C217.804 504.885 237.29 507.715 254.837 509.532C265.029 510.587 277.539 510.557 282.788 501.75C284.864 498.266 262.552 486.112 262.91 482.072C264.841 460.267 289.492 446.42 291.423 424.616C294.452 439.809 290.571 455.494 291.183 470.974C291.796 486.454 299.42 503.964 314.566 507.165C319.24 508.153 324.517 507.47 328.059 504.262C331.602 501.055 332.636 494.996 329.48 491.407C332.712 494.71 338.165 495.569 342.253 493.418C346.342 491.267 348.727 486.285 347.841 481.748C347.19 478.412 345.038 475.606 343.175 472.764C333.084 457.367 330.456 437.304 336.239 419.823C346.462 388.923 380.034 368.754 385.721 336.705C389.944 312.904 377.895 285.936 390.681 265.428C396.444 256.186 406.228 250.36 414.032 242.765C421.836 235.171 427.938 223.552 423.472 213.618L383.584 213.574" fill="#3F3D56"/>
<path d="M259.899 486.387C258.907 486.387 257.889 486.121 256.906 485.594C254.642 484.378 252.934 481.976 252.556 479.472C251.926 475.307 253.908 471.263 255.501 468.013C259.857 459.125 264.164 449.621 264.799 439.746C265.492 428.965 261.122 418.971 253.667 414.286C248.126 410.804 240.728 409.909 232.837 411.766C225.848 413.411 219.569 416.774 212.67 420.675C212.122 420.985 211.428 420.792 211.118 420.243C210.809 419.696 211.002 419 211.549 418.691C218.343 414.849 225.044 411.259 232.315 409.547C240.804 407.551 248.817 408.547 254.878 412.356C263.031 417.48 267.818 428.289 267.072 439.893C266.41 450.184 262.003 459.923 257.545 469.017C256.017 472.136 254.284 475.671 254.808 479.13C255.078 480.921 256.354 482.711 257.983 483.585C258.776 484.011 259.986 484.395 261.242 483.81C261.813 483.543 262.49 483.791 262.755 484.361C263.021 484.932 262.774 485.61 262.204 485.875C261.472 486.217 260.694 486.387 259.899 486.387Z" fill="#2F2E41"/>
<path d="M347.165 212.82C345.674 216.907 347.663 221.487 350.42 224.852C353.177 228.216 356.718 230.921 359.148 234.529C364.24 242.093 363.476 252.433 359.563 260.669C355.65 268.906 349.054 275.505 342.584 281.928C343.063 279.174 341.671 276.394 339.775 274.341C337.878 272.289 335.491 270.765 333.371 268.946C323.495 260.473 320.406 245.034 326.26 233.409" fill="#2F2E41"/>
<path d="M212.283 455.983C203.918 454.958 196.852 462.491 188.504 463.646C178.85 464.982 169.972 457.337 165.677 448.582C161.382 439.827 160.28 429.889 157.325 420.595C154.37 411.301 148.669 401.887 139.382 398.933C135.485 397.694 131.076 397.761 127.457 399.664C123.837 401.566 121.184 405.45 121.274 409.541C121.386 414.575 125.243 418.604 127.58 423.063C131.298 430.158 131.182 438.561 132.825 446.402C136.773 465.255 152.096 481.242 170.753 485.975C180.401 488.423 191.202 487.862 199.559 482.453C207.917 477.043 213.011 466.148 209.917 456.68" fill="#3F3D56"/>
</g>
<defs>
<clipPath id="clip0_37_942">
<rect width="747" height="510" fill="white"/>
</clipPath>
</defs>
</svg>
