<svg width="940" height="512" viewBox="0 0 940 512" fill="none" xmlns="http://www.w3.org/2000/svg">
<g clip-path="url(#clip0_3_49)">
<path d="M295.611 446H838V444H295.611C295.274 444 295 444.448 295 445C295 445.552 295.274 446 295.611 446Z" fill="#3F3D56"/>
<path d="M429.775 464.215C435.068 489.62 465.236 458.393 465.236 458.393L501.227 454.158C501.227 454.158 523.986 454.688 538.806 466.332C553.626 477.976 563.682 462.627 563.682 462.627C580.379 468.192 600.835 468.17 618.55 466.388C644.078 463.819 664.54 444.115 668.049 418.699C687.841 275.326 579.031 204.868 579.031 204.868L547.275 119.125C547.275 119.125 557.331 94.2486 560.507 72.0189C563.682 49.7891 540.394 28.618 511.813 7.44679C499.309 -1.8156 484.981 -1.14986 472.819 2.52976C459.175 6.65757 447.273 15.146 438.479 26.3644C431.194 35.6585 418.698 48.8214 404.962 51.1017C400.209 51.8851 395.52 53.7693 391.137 57.199C386.607 60.7452 384.606 66.6626 384.543 74.0196C384.204 106.157 410.742 144.848 434.009 150.881C462.59 158.291 447.241 228.686 447.241 228.686C400.664 294.316 433.48 367.357 433.48 367.357L425.011 426.636C425.011 426.636 424.482 438.809 429.775 464.215Z" fill="#3F3D56"/>
<path d="M585.383 327.661L573.739 472.683C573.739 472.683 589.617 512.908 535.631 510.791C481.644 508.674 513.401 426.107 513.401 426.107L530.338 318.134" fill="#3F3D56"/>
<path d="M539.648 511.931C538.328 511.931 536.977 511.904 535.589 511.849C523.638 511.381 514.838 506.979 509.431 498.767C493.974 475.286 511.166 429.001 512.372 425.833L529.292 317.969C529.383 317.391 529.92 317.003 530.502 317.088C531.079 317.179 531.474 317.72 531.384 318.298L514.447 426.271C514.435 426.344 514.416 426.417 514.389 426.487C514.204 426.966 496.127 474.71 511.201 497.605C516.211 505.212 524.443 509.293 535.672 509.734C553.3 510.421 565.156 506.661 570.92 498.547C578.461 487.931 572.812 473.219 572.754 473.071C572.695 472.921 572.671 472.759 572.683 472.598L584.327 327.576C584.374 326.994 584.874 326.569 585.468 326.605C586.051 326.653 586.485 327.162 586.438 327.746L574.813 472.53C575.582 474.606 580.404 488.837 572.654 499.76C566.92 507.843 555.825 511.931 539.648 511.931Z" fill="#2F2E41"/>
<path d="M489.054 357.3C489.054 357.3 492.23 491.737 425.541 488.562C358.851 485.386 419.189 443.044 419.189 443.044L425.011 426.636" fill="#3F3D56"/>
<path d="M427.829 489.675C427.055 489.675 426.277 489.656 425.49 489.619C406.448 488.713 395.689 484.446 393.513 476.939C389.592 463.412 415.149 444.63 418.303 442.374L424.014 426.282C424.209 425.73 424.814 425.443 425.365 425.638C425.916 425.834 426.204 426.439 426.009 426.99L420.187 443.397C420.113 443.605 419.977 443.784 419.797 443.91C419.518 444.106 391.875 463.689 395.547 476.35C397.444 482.893 407.552 486.645 425.591 487.504C437.604 488.082 448.135 484.042 456.872 475.512C489.637 443.526 488.016 358.183 487.995 357.325C487.982 356.741 488.444 356.256 489.029 356.242C489.582 356.243 490.098 356.691 490.113 357.276C490.196 360.817 491.777 444.393 458.353 477.025C449.749 485.425 439.489 489.675 427.829 489.675Z" fill="#2F2E41"/>
<path d="M384.543 74.0195C392.143 74.9299 404.041 74.8875 413.896 68.3139C424.45 61.2745 413.494 54.7114 404.962 51.1017C400.209 51.885 395.52 53.7693 391.137 57.199C386.607 60.7452 384.606 66.6625 384.543 74.0195Z" fill="#2F2E41"/>
<path d="M507.365 54.9856C507.365 54.9856 488.894 7.54486 515.35 6.88103C541.805 6.2172 562.702 47.3285 562.702 47.3285C562.702 47.3285 629.103 168.367 538.128 161.84C447.154 155.312 490.627 106.995 490.627 106.995C490.627 106.995 511.376 81.4843 507.365 54.9856Z" fill="#2F2E41"/>
<path d="M608.712 409.504C620.428 414.716 632.669 420.035 645.482 419.526C658.295 419.017 671.778 410.766 673.775 398.099C674.805 391.56 672.761 384.545 675.265 378.418C678.633 370.173 689.499 366.993 697.945 369.819C706.391 372.644 712.596 379.93 717.045 387.645C725.369 402.081 728.704 421.027 719.78 435.098C712.043 447.297 697.369 452.809 683.72 457.537C665.538 463.835 645.24 470.085 627.622 462.349C609.904 454.569 600.253 432.091 606.814 413.886" fill="#3F3D56"/>
<path d="M569.626 180.93C569.626 180.93 592.914 192.574 581.27 205.277C569.626 217.98 497.644 253.971 471.18 248.678C444.716 243.385 438.364 227.507 438.364 223.273C438.364 219.038 440.361 167.818 448.829 169.936C457.297 172.053 510.346 220.097 569.626 180.93Z" fill="#4E3E9D"/>
</g>
<defs>
<clipPath id="clip0_3_49">
<rect width="940" height="511.931" fill="white"/>
</clipPath>
</defs>
</svg>
