<svg width="355" height="476" viewBox="0 0 355 476" fill="none" xmlns="http://www.w3.org/2000/svg">
<path d="M339.501 66.2877C331.383 44.6464 325.706 18.9508 301.651 11.4198C281.733 5.18247 258.492 11.8712 242.427 23.7525C229.44 33.3573 216.946 46.4259 209.012 60.5943C204.113 69.3372 197.148 88.3913 194.035 95.1732C181.413 122.676 164.366 148.187 145.066 171.427C139.338 178.324 130.523 182.524 123.378 187.517C114.722 193.567 106.19 199.79 97.6414 205.989C67.3549 227.955 19.2786 252.209 19.8143 294.035C20.1708 321.797 43.0594 339.91 72.9043 338.115C93.3318 336.887 121.574 326.722 138.769 343.524C151.584 356.046 153.15 375.969 158.435 392.032C164.06 409.128 172.855 422.867 186.844 434.394C209.595 453.139 239.641 461.203 268.362 464.559C323.874 471.04 393.79 466.988 431.464 419.562C437.154 412.398 441.774 404.538 445.428 396.159C454.718 374.858 457.993 349.479 455.256 326.426C450.612 287.318 440.8 251.81 414.688 221.789C403.031 208.383 390.276 197.857 375.926 187.517C364.638 179.384 354.814 176.728 349.206 162.863C336.856 132.323 351.066 97.1325 339.501 66.2877Z" fill="#D9D1FF" stroke="#D9D1FF" stroke-width="7.93333" stroke-miterlimit="1.5" stroke-linecap="round" stroke-linejoin="round"/>
</svg>
