<svg width="255" height="295" viewBox="0 0 255 295" fill="none" xmlns="http://www.w3.org/2000/svg">
<g clip-path="url(#clip0_22_336)">
<path d="M120.677 180.601C119.457 180.278 118.539 179.585 117.924 178.521C117.309 177.457 117.162 176.315 117.485 175.095C117.807 173.875 118.501 172.957 119.565 172.342C120.629 171.727 121.771 171.581 122.991 171.903C124.211 172.226 125.128 172.919 125.743 173.983C126.359 175.047 126.505 176.189 126.182 177.409C125.86 178.629 125.167 179.546 124.103 180.162C123.039 180.777 121.897 180.923 120.677 180.601ZM131.792 174.747C130.572 174.425 129.654 173.731 129.039 172.667C128.424 171.603 128.278 170.461 128.6 169.241C128.923 168.021 129.616 167.104 130.68 166.489C131.744 165.873 132.886 165.727 134.106 166.05C135.326 166.372 136.244 167.065 136.859 168.129C137.474 169.193 137.62 170.335 137.298 171.555C136.975 172.775 136.282 173.693 135.218 174.308C134.154 174.923 133.012 175.07 131.792 174.747ZM143.877 177.942C142.657 177.619 141.739 176.926 141.124 175.862C140.509 174.798 140.362 173.656 140.685 172.436C141.008 171.216 141.701 170.299 142.765 169.683C143.829 169.068 144.971 168.922 146.191 169.245C147.411 169.567 148.328 170.26 148.944 171.324C149.559 172.388 149.705 173.53 149.382 174.75C149.06 175.97 148.367 176.888 147.303 177.503C146.239 178.118 145.097 178.265 143.877 177.942ZM150.647 188.524C149.427 188.201 148.509 187.508 147.894 186.444C147.279 185.38 147.133 184.238 147.455 183.018C147.778 181.798 148.471 180.881 149.535 180.265C150.599 179.65 151.741 179.504 152.961 179.826C154.181 180.149 155.099 180.842 155.714 181.906C156.329 182.97 156.475 184.112 156.153 185.332C155.83 186.552 155.137 187.47 154.073 188.085C153.009 188.7 151.867 188.846 150.647 188.524ZM120.084 201.648C118.731 201.29 117.753 200.489 117.152 199.243C116.55 197.997 116.433 196.682 116.798 195.297C117.156 193.944 117.885 192.852 118.983 192.022C120.082 191.192 121.226 190.417 122.416 189.697C123.313 189.176 124.172 188.601 124.993 187.974C125.814 187.346 126.609 186.686 127.378 185.992C128.688 184.822 130.084 183.777 131.568 182.859C133.052 181.941 134.632 181.704 136.308 182.147C137.983 182.59 139.247 183.579 140.1 185.115C140.952 186.651 141.654 188.267 142.205 189.964C142.532 190.947 142.891 191.904 143.283 192.835C143.674 193.766 144.131 194.68 144.652 195.576C145.331 196.79 145.943 198.029 146.488 199.294C147.033 200.558 147.127 201.867 146.769 203.221C146.403 204.605 145.651 205.69 144.512 206.476C143.373 207.262 142.127 207.476 140.774 207.118C139.033 206.658 137.348 206.057 135.716 205.315C134.085 204.574 132.399 203.973 130.659 203.513C128.919 203.053 127.156 202.742 125.372 202.581C123.587 202.419 121.825 202.108 120.084 201.648Z" fill="#F7F5FF"/>
</g>
<g clip-path="url(#clip1_22_336)">
<path d="M197.169 70.5781C195.949 70.2556 195.031 69.5623 194.416 68.4984C193.801 67.4345 193.655 66.2925 193.977 65.0724C194.3 63.8524 194.993 62.9348 196.057 62.3196C197.121 61.7044 198.263 61.5581 199.483 61.8807C200.703 62.2032 201.621 62.8965 202.236 63.9604C202.851 65.0244 202.997 66.1663 202.675 67.3864C202.352 68.6064 201.659 69.5241 200.595 70.1392C199.531 70.7544 198.389 70.9007 197.169 70.5781ZM208.284 64.7247C207.064 64.4022 206.147 63.7089 205.531 62.645C204.916 61.581 204.77 60.439 205.092 59.219C205.415 57.9989 206.108 57.0813 207.172 56.4662C208.236 55.851 209.378 55.7047 210.598 56.0273C211.818 56.3498 212.736 57.043 213.351 58.107C213.966 59.1709 214.112 60.3129 213.79 61.533C213.467 62.753 212.774 63.6706 211.71 64.2858C210.646 64.901 209.504 65.0473 208.284 64.7247ZM220.369 67.9196C219.149 67.5971 218.231 66.9038 217.616 65.8399C217.001 64.776 216.855 63.634 217.177 62.4139C217.5 61.1939 218.193 60.2763 219.257 59.6611C220.321 59.0459 221.463 58.8996 222.683 59.2222C223.903 59.5447 224.821 60.238 225.436 61.3019C226.051 62.3658 226.197 63.5078 225.875 64.7279C225.552 65.9479 224.859 66.8655 223.795 67.4807C222.731 68.0959 221.589 68.2422 220.369 67.9196ZM227.139 78.5015C225.919 78.179 225.002 77.4857 224.386 76.4218C223.771 75.3579 223.625 74.2159 223.948 72.9958C224.27 71.7758 224.963 70.8582 226.027 70.243C227.091 69.6278 228.233 69.4815 229.453 69.8041C230.673 70.1266 231.591 70.8199 232.206 71.8838C232.821 72.9477 232.968 74.0897 232.645 75.3098C232.322 76.5298 231.629 77.4474 230.565 78.0626C229.501 78.6778 228.359 78.8241 227.139 78.5015ZM196.577 91.6259C195.223 91.268 194.246 90.4661 193.644 89.2201C193.043 87.9741 192.925 86.6591 193.291 85.2751C193.649 83.9216 194.377 82.8298 195.475 81.9997C196.574 81.1696 197.719 80.3947 198.909 79.675C199.805 79.1534 200.664 78.5788 201.485 77.9512C202.306 77.3235 203.101 76.6631 203.87 75.9701C205.18 74.7992 206.577 73.7548 208.06 72.837C209.544 71.9191 211.124 71.6816 212.8 72.1247C214.476 72.5677 215.74 73.557 216.592 75.0926C217.445 76.6281 218.147 78.2445 218.698 79.9418C219.024 80.9245 219.383 81.8814 219.775 82.8124C220.167 83.7435 220.623 84.6572 221.145 85.5536C221.824 86.7675 222.436 88.0067 222.98 89.2713C223.525 90.5359 223.619 91.845 223.261 93.1984C222.895 94.5825 222.143 95.6675 221.004 96.4534C219.865 97.2393 218.619 97.4534 217.266 97.0956C215.526 96.6355 213.84 96.0347 212.209 95.2931C210.577 94.5515 208.891 93.9507 207.151 93.4906C205.411 93.0305 203.649 92.7198 201.864 92.5582C200.079 92.3967 198.317 92.0859 196.577 91.6259Z" fill="#F7F5FF"/>
</g>
<g clip-path="url(#clip2_22_336)">
<path d="M27.8883 215.961C26.6682 215.638 25.7506 214.945 25.1355 213.881C24.5203 212.817 24.374 211.675 24.6965 210.455C25.0191 209.235 25.7123 208.317 26.7763 207.702C27.8402 207.087 28.9822 206.941 30.2023 207.263C31.4223 207.586 32.3399 208.279 32.9551 209.343C33.5702 210.407 33.7166 211.549 33.394 212.769C33.0715 213.989 32.3782 214.907 31.3143 215.522C30.2503 216.137 29.1083 216.283 27.8883 215.961ZM39.0036 210.107C37.7835 209.785 36.8659 209.091 36.2508 208.027C35.6356 206.964 35.4893 205.822 35.8118 204.602C36.1344 203.381 36.8276 202.464 37.8916 201.849C38.9555 201.234 40.0975 201.087 41.3176 201.41C42.5376 201.732 43.4552 202.426 44.0704 203.489C44.6855 204.553 44.8319 205.695 44.5093 206.915C44.1868 208.136 43.4935 209.053 42.4296 209.668C41.3656 210.283 40.2236 210.43 39.0036 210.107ZM51.0884 213.302C49.8683 212.98 48.9507 212.286 48.3356 211.222C47.7204 210.158 47.5741 209.016 47.8967 207.796C48.2192 206.576 48.9124 205.659 49.9764 205.044C51.0403 204.428 52.1823 204.282 53.4024 204.605C54.6224 204.927 55.54 205.62 56.1552 206.684C56.7704 207.748 56.9167 208.89 56.5941 210.11C56.2716 211.33 55.5783 212.248 54.5144 212.863C53.4504 213.478 52.3084 213.625 51.0884 213.302ZM57.8586 223.884C56.6386 223.561 55.721 222.868 55.1058 221.804C54.4906 220.74 54.3443 219.598 54.6669 218.378C54.9894 217.158 55.6827 216.241 56.7466 215.625C57.8105 215.01 58.9525 214.864 60.1726 215.187C61.3926 215.509 62.3102 216.202 62.9254 217.266C63.5406 218.33 63.6869 219.472 63.3643 220.692C63.0418 221.912 62.3485 222.83 61.2846 223.445C60.2207 224.06 59.0787 224.207 57.8586 223.884ZM27.296 237.008C25.9425 236.651 24.965 235.849 24.3635 234.603C23.762 233.357 23.6442 232.042 24.0101 230.658C24.3679 229.304 25.0962 228.212 26.1948 227.382C27.2935 226.552 28.4379 225.777 29.628 225.057C30.5245 224.536 31.3832 223.961 32.2042 223.334C33.0252 222.706 33.8204 222.046 34.5898 221.353C35.8992 220.182 37.2959 219.137 38.7798 218.219C40.2637 217.302 41.8435 217.064 43.5193 217.507C45.195 217.95 46.4591 218.94 47.3116 220.475C48.1641 222.011 48.866 223.627 49.4172 225.324C49.7435 226.307 50.1025 227.264 50.4942 228.195C50.8859 229.126 51.3425 230.04 51.8641 230.936C52.5431 232.15 53.155 233.389 53.6999 234.654C54.2447 235.918 54.3382 237.227 53.9804 238.581C53.6145 239.965 52.8622 241.05 51.7235 241.836C50.5848 242.622 49.3387 242.836 47.9852 242.478C46.245 242.018 44.5592 241.417 42.9279 240.676C41.2966 239.934 39.6109 239.333 37.8706 238.873C36.1304 238.413 34.368 238.102 32.5833 237.941C30.7987 237.779 29.0362 237.468 27.296 237.008Z" fill="#F7F5FF"/>
</g>
<g clip-path="url(#clip3_22_336)">
<path d="M104.381 105.938C103.161 105.616 102.243 104.923 101.628 103.859C101.013 102.795 100.866 101.653 101.189 100.433C101.512 99.2125 102.205 98.2949 103.269 97.6798C104.333 97.0646 105.475 96.9183 106.695 97.2409C107.915 97.5634 108.832 98.2566 109.448 99.3206C110.063 100.385 110.209 101.527 109.886 102.747C109.564 103.967 108.871 104.884 107.807 105.499C106.743 106.115 105.601 106.261 104.381 105.938ZM115.496 100.085C114.276 99.7623 113.358 99.0691 112.743 98.0051C112.128 96.9412 111.982 95.7992 112.304 94.5792C112.627 93.3591 113.32 92.4415 114.384 91.8263C115.448 91.2112 116.59 91.0649 117.81 91.3874C119.03 91.71 119.948 92.4032 120.563 93.4672C121.178 94.5311 121.324 95.6731 121.002 96.8931C120.679 98.1132 119.986 99.0308 118.922 99.646C117.858 100.261 116.716 100.407 115.496 100.085ZM127.581 103.28C126.361 102.957 125.443 102.264 124.828 101.2C124.213 100.136 124.067 98.9941 124.389 97.7741C124.712 96.554 125.405 95.6364 126.469 95.0213C127.533 94.4061 128.675 94.2598 129.895 94.5823C131.115 94.9049 132.032 95.5981 132.648 96.6621C133.263 97.726 133.409 98.868 133.087 100.088C132.764 101.308 132.071 102.226 131.007 102.841C129.943 103.456 128.801 103.602 127.581 103.28ZM134.351 113.862C133.131 113.539 132.213 112.846 131.598 111.782C130.983 110.718 130.837 109.576 131.159 108.356C131.482 107.136 132.175 106.218 133.239 105.603C134.303 104.988 135.445 104.842 136.665 105.164C137.885 105.487 138.803 106.18 139.418 107.244C140.033 108.308 140.179 109.45 139.857 110.67C139.534 111.89 138.841 112.808 137.777 113.423C136.713 114.038 135.571 114.184 134.351 113.862ZM103.788 126.986C102.435 126.628 101.457 125.826 100.856 124.58C100.254 123.334 100.137 122.019 100.503 120.635C100.86 119.282 101.589 118.19 102.687 117.36C103.786 116.53 104.93 115.755 106.12 115.035C107.017 114.514 107.876 113.939 108.697 113.311C109.518 112.684 110.313 112.023 111.082 111.33C112.392 110.159 113.788 109.115 115.272 108.197C116.756 107.279 118.336 107.042 120.012 107.485C121.687 107.928 122.952 108.917 123.804 110.453C124.657 111.988 125.358 113.605 125.91 115.302C126.236 116.285 126.595 117.242 126.987 118.173C127.378 119.104 127.835 120.017 128.357 120.914C129.035 122.128 129.647 123.367 130.192 124.631C130.737 125.896 130.831 127.205 130.473 128.559C130.107 129.943 129.355 131.028 128.216 131.814C127.077 132.6 125.831 132.814 124.478 132.456C122.737 131.996 121.052 131.395 119.42 130.653C117.789 129.912 116.103 129.311 114.363 128.851C112.623 128.391 110.86 128.08 109.076 127.918C107.291 127.757 105.529 127.446 103.788 126.986Z" fill="#F7F5FF"/>
</g>
<defs>
<clipPath id="clip0_22_336">
<rect width="48" height="48" fill="white" transform="translate(118.536 155.469) rotate(14.8087)"/>
</clipPath>
<clipPath id="clip1_22_336">
<rect width="48" height="48" fill="white" transform="translate(195.028 45.4463) rotate(14.8087)"/>
</clipPath>
<clipPath id="clip2_22_336">
<rect width="48" height="48" fill="white" transform="translate(25.7478 190.829) rotate(14.8087)"/>
</clipPath>
<clipPath id="clip3_22_336">
<rect width="48" height="48" fill="white" transform="translate(102.24 80.8065) rotate(14.8087)"/>
</clipPath>
</defs>
</svg>
