<svg width="164" height="178" viewBox="0 0 164 178" fill="none" xmlns="http://www.w3.org/2000/svg">
<path d="M107.917 60.7614C106.656 60.7047 105.612 60.2217 104.786 59.3124C103.959 58.403 103.574 57.318 103.63 56.0573C103.687 54.7966 104.17 53.7529 105.079 52.9262C105.989 52.0995 107.074 51.7144 108.335 51.7711C109.595 51.8277 110.639 52.3107 111.466 53.22C112.292 54.1294 112.677 55.2145 112.621 56.4751C112.564 57.7358 112.081 58.7795 111.172 59.6062C110.262 60.4329 109.177 60.818 107.917 60.7614ZM117.539 52.6849C116.278 52.6283 115.234 52.1453 114.408 51.2359C113.581 50.3266 113.196 49.2415 113.252 47.9808C113.309 46.7201 113.792 45.6764 114.701 44.8497C115.611 44.0231 116.696 43.638 117.957 43.6946C119.217 43.7513 120.261 44.2343 121.088 45.1436C121.914 46.053 122.299 47.138 122.243 48.3987C122.186 49.6594 121.703 50.7031 120.794 51.5298C119.884 52.3565 118.799 52.7416 117.539 52.6849ZM130.026 53.2458C128.765 53.1892 127.722 52.7062 126.895 51.7968C126.068 50.8874 125.683 49.8024 125.74 48.5417C125.797 47.281 126.28 46.2373 127.189 45.4106C128.098 44.5839 129.183 44.1989 130.444 44.2555C131.705 44.3121 132.748 44.7951 133.575 45.7045C134.402 46.6138 134.787 47.6989 134.73 48.9596C134.674 50.2203 134.191 51.264 133.281 52.0907C132.372 52.9174 131.287 53.3024 130.026 53.2458ZM138.885 62.1522C137.625 62.0956 136.581 61.6126 135.754 60.7033C134.928 59.7939 134.543 58.7088 134.599 57.4481C134.656 56.1874 135.139 55.1438 136.048 54.3171C136.958 53.4904 138.043 53.1053 139.303 53.1619C140.564 53.2186 141.608 53.7016 142.434 54.6109C143.261 55.5203 143.646 56.6053 143.59 57.866C143.533 59.1267 143.05 60.1704 142.141 60.9971C141.231 61.8238 140.146 62.2089 138.885 62.1522ZM111.799 81.4564C110.4 81.3936 109.275 80.8171 108.423 79.7269C107.571 78.6367 107.177 77.3765 107.242 75.9464C107.305 74.5478 107.785 73.3264 108.683 72.2823C109.58 71.2382 110.534 70.2384 111.545 69.2827C112.31 68.583 113.028 67.8395 113.697 67.0521C114.367 66.2646 115.004 65.4507 115.609 64.6104C116.64 63.1885 117.784 61.8719 119.039 60.6603C120.295 59.4488 121.789 58.8819 123.52 58.9596C125.252 59.0374 126.697 59.7363 127.856 61.0563C129.014 62.3762 130.043 63.8072 130.941 65.349C131.468 66.2402 132.022 67.0993 132.602 67.9261C133.182 68.753 133.822 69.5492 134.522 70.3147C135.443 71.357 136.303 72.4384 137.104 73.5588C137.904 74.6792 138.273 75.9387 138.21 77.3373C138.146 78.7674 137.641 79.9872 136.695 80.9966C135.749 82.0061 134.576 82.4794 133.178 82.4166C131.379 82.3358 129.605 82.1059 127.853 81.727C126.102 81.348 124.327 81.1181 122.529 81.0374C120.73 80.9566 118.942 81.0265 117.164 81.2469C115.386 81.4673 113.597 81.5372 111.799 81.4564Z" fill="#EFECFC"/>
<path d="M24.7318 114.985C23.4711 114.929 22.4274 114.446 21.6007 113.536C20.774 112.627 20.389 111.542 20.4456 110.281C20.5022 109.021 20.9852 107.977 21.8946 107.15C22.804 106.324 23.889 105.939 25.1497 105.995C26.4104 106.052 27.4541 106.535 28.2808 107.444C29.1075 108.354 29.4925 109.439 29.4359 110.699C29.3793 111.96 28.8963 113.004 27.9869 113.83C27.0775 114.657 25.9925 115.042 24.7318 114.985ZM34.3539 106.909C33.0932 106.852 32.0495 106.369 31.2228 105.46C30.3961 104.551 30.011 103.466 30.0677 102.205C30.1243 100.944 30.6073 99.9006 31.5167 99.0739C32.426 98.2472 33.5111 97.8621 34.7718 97.9188C36.0325 97.9754 37.0762 98.4584 37.9029 99.3677C38.7296 100.277 39.1146 101.362 39.058 102.623C39.0013 103.884 38.5183 104.927 37.609 105.754C36.6996 106.581 35.6146 106.966 34.3539 106.909ZM46.8413 107.47C45.5806 107.413 44.5369 106.93 43.7102 106.021C42.8835 105.112 42.4985 104.026 42.5551 102.766C42.6117 101.505 43.0947 100.461 44.0041 99.6347C44.9134 98.808 45.9985 98.423 47.2592 98.4796C48.5199 98.5362 49.5636 99.0192 50.3903 99.9286C51.217 100.838 51.602 101.923 51.5454 103.184C51.4888 104.444 51.0058 105.488 50.0964 106.315C49.187 107.141 48.102 107.527 46.8413 107.47ZM55.7006 116.376C54.4399 116.32 53.3962 115.837 52.5695 114.927C51.7428 114.018 51.3578 112.933 51.4144 111.672C51.471 110.412 51.954 109.368 52.8634 108.541C53.7728 107.714 54.8578 107.329 56.1185 107.386C57.3792 107.443 58.4229 107.926 59.2496 108.835C60.0763 109.744 60.4613 110.829 60.4047 112.09C60.3481 113.351 59.8651 114.395 58.9557 115.221C58.0463 116.048 56.9613 116.433 55.7006 116.376ZM28.6142 135.681C27.2157 135.618 26.0904 135.041 25.2384 133.951C24.3865 132.861 23.9926 131.601 24.0569 130.17C24.1197 128.772 24.6 127.551 25.4977 126.506C26.3955 125.462 27.3496 124.462 28.3602 123.507C29.1257 122.807 29.8431 122.064 30.5124 121.276C31.1818 120.489 31.8189 119.675 32.4239 118.834C33.4554 117.413 34.599 116.096 35.8546 114.884C37.1102 113.673 38.6038 113.106 40.3354 113.184C42.067 113.262 43.5121 113.96 44.6707 115.28C45.8293 116.6 46.8578 118.031 47.7562 119.573C48.2834 120.464 48.8371 121.323 49.4173 122.15C49.9974 122.977 50.6373 123.773 51.337 124.539C52.2578 125.581 53.1185 126.663 53.9191 127.783C54.7196 128.903 55.0885 130.163 55.0257 131.561C54.9614 132.992 54.4562 134.211 53.5099 135.221C52.5637 136.23 51.3913 136.703 49.9927 136.641C48.1945 136.56 46.4197 136.33 44.6683 135.951C42.9168 135.572 41.142 135.342 39.3438 135.262C37.5457 135.181 35.7574 135.251 33.979 135.471C32.2007 135.691 30.4124 135.761 28.6142 135.681Z" fill="#EFECFC"/>
</svg>
