<svg width="32" height="31" viewBox="0 0 32 31" fill="none" xmlns="http://www.w3.org/2000/svg">
<g clip-path="url(#clip0_22_44)">
<path d="M32 15.2701C32 6.89002 24.836 0.0957031 16 0.0957031C7.164 0.0957031 0 6.89002 0 15.2701C0 22.8445 5.85067 29.1217 13.5 30.2598V19.6567H9.43733V15.2688H13.5V11.9279C13.5 8.12545 15.8893 6.02381 19.544 6.02381C21.2933 6.02381 23.1253 6.32098 23.1253 6.32098V10.0551H21.1067C19.1187 10.0551 18.4987 11.2248 18.4987 12.4249V15.2701H22.936L22.2267 19.6579H18.4987V30.261C26.1493 29.1217 32 22.8433 32 15.2701Z" fill="#201264"/>
</g>
<defs>
<clipPath id="clip0_22_44">
<rect width="32" height="30.3487" fill="white" transform="translate(0 0.00244141)"/>
</clipPath>
</defs>
</svg>
