<svg width="32" height="31" viewBox="0 0 32 31" fill="none" xmlns="http://www.w3.org/2000/svg">
<g clip-path="url(#clip0_22_46)">
<path d="M16 0.00244141C11.6533 0.00244141 11.1107 0.0214093 9.404 0.0934874C7.7 0.169359 6.54 0.423529 5.52 0.799094C4.468 1.18604 3.57467 1.70576 2.68533 2.5492C1.796 3.39264 1.24667 4.23861 0.84 5.23759C0.444 6.20495 0.174667 7.30509 0.096 8.92116C0.016 10.5398 0 11.0544 0 15.1768C0 19.2992 0.02 19.8138 0.096 21.4324C0.176 23.0472 0.444 24.1486 0.84 25.116C1.248 26.1125 1.796 26.9609 2.68533 27.8044C3.57467 28.6466 4.46667 29.1688 5.52 29.5545C6.54133 29.9288 7.70133 30.1854 9.404 30.2601C11.1107 30.3359 11.6533 30.3511 16 30.3511C20.3467 30.3511 20.8893 30.3321 22.596 30.2601C24.2987 30.1842 25.46 29.9288 26.48 29.5545C27.5307 29.1675 28.4253 28.6466 29.3147 27.8044C30.2027 26.9609 30.7533 26.1162 31.16 25.116C31.5547 24.1486 31.8253 23.0472 31.904 21.4324C31.984 19.8138 32 19.2992 32 15.1768C32 11.0544 31.98 10.5398 31.904 8.92116C31.824 7.30635 31.5547 6.20369 31.16 5.23759C30.752 4.23988 30.2027 3.39264 29.3147 2.5492C28.4253 1.70576 27.5347 1.18478 26.48 0.799094C25.46 0.423529 24.2987 0.168095 22.596 0.0934874C20.8893 0.0176157 20.3467 0.00244141 16 0.00244141ZM16 2.73382C20.2707 2.73382 20.78 2.75405 22.4667 2.82361C24.0267 2.89315 24.8733 3.13847 25.436 3.34838C26.1853 3.62278 26.716 3.95156 27.2787 4.4814C27.8373 5.01251 28.184 5.51705 28.4733 6.22771C28.692 6.76135 28.9533 7.56432 29.024 9.04381C29.1 10.6447 29.1173 11.1252 29.1173 15.1768C29.1173 19.2283 29.0973 19.7101 29.0187 21.3098C28.9373 22.7893 28.6773 23.5922 28.4573 24.1258C28.1587 24.8365 27.8187 25.3398 27.2587 25.8735C26.7 26.4032 26.16 26.732 25.4187 27.0064C24.8587 27.2138 23.9987 27.4616 22.4387 27.5287C20.74 27.6008 20.24 27.6172 15.96 27.6172C11.6787 27.6172 11.1787 27.5982 9.48133 27.5237C7.92 27.4465 7.06 27.1999 6.5 26.9912C5.74133 26.708 5.22 26.3856 4.66133 25.8545C4.1 25.3246 3.74133 24.8125 3.46133 24.1094C3.24133 23.5783 2.98267 22.7627 2.90133 21.2832C2.84133 19.6899 2.82 19.198 2.82 15.1578C2.82 11.1164 2.84133 10.6232 2.90133 9.01094C2.98267 7.53145 3.24133 6.71709 3.46133 6.18598C3.74133 5.4652 4.1 4.97204 4.66133 4.43967C5.22 3.90983 5.74133 3.56841 6.5 3.30412C7.06 3.09421 7.90133 2.84763 9.46133 2.77176C11.1613 2.71485 11.6613 2.69589 15.94 2.69589L16 2.73382ZM16 7.38476C11.46 7.38476 7.784 10.8749 7.784 15.1768C7.784 19.4825 11.464 22.9688 16 22.9688C20.54 22.9688 24.216 19.4787 24.216 15.1768C24.216 10.8711 20.536 7.38476 16 7.38476ZM16 20.2349C13.0533 20.2349 10.6667 17.9714 10.6667 15.1768C10.6667 12.3821 13.0533 10.1187 16 10.1187C18.9467 10.1187 21.3333 12.3821 21.3333 15.1768C21.3333 17.9714 18.9467 20.2349 16 20.2349ZM26.4613 7.07748C26.4613 8.08278 25.6 8.8984 24.5413 8.8984C23.4813 8.8984 22.6213 8.08152 22.6213 7.07748C22.6213 6.07344 23.4827 5.25782 24.5413 5.25782C25.5987 5.25656 26.4613 6.07344 26.4613 7.07748Z" fill="#201264"/>
</g>
<defs>
<clipPath id="clip0_22_46">
<rect width="32" height="30.3487" fill="white" transform="translate(0 0.00244141)"/>
</clipPath>
</defs>
</svg>
