<svg width="32" height="31" viewBox="0 0 32 31" fill="none" xmlns="http://www.w3.org/2000/svg">
<path d="M31.3307 7.82449C31.1499 7.17866 30.7934 6.58921 30.2968 6.11518C29.8003 5.64114 29.1811 5.29915 28.5013 5.12346C26.0067 4.48486 16 4.48486 16 4.48486C16 4.48486 5.99333 4.48486 3.49733 5.12346C2.81788 5.29946 2.19906 5.64157 1.70277 6.11557C1.20648 6.58958 0.850122 7.17887 0.669333 7.82449C0 10.2069 0 15.1765 0 15.1765C0 15.1765 0 20.1461 0.669333 22.5284C0.850115 23.1743 1.20663 23.7637 1.70319 24.2377C2.19974 24.7117 2.8189 25.0537 3.49867 25.2295C5.99333 25.868 16 25.868 16 25.868C16 25.868 26.0067 25.868 28.5027 25.2295C29.1825 25.0539 29.8017 24.7119 30.2983 24.2379C30.7949 23.7638 31.1513 23.1743 31.332 22.5284C32 20.1461 32 15.1765 32 15.1765C32 15.1765 32 10.2069 31.3307 7.82449ZM12.7267 19.6883V10.6647L21.0907 15.1765L12.7267 19.6883Z" fill="#201264"/>
</svg>
