<svg width="32" height="32" viewBox="0 0 32 32" fill="none" xmlns="http://www.w3.org/2000/svg">
<path d="M5.92042 14.9737C5.10014 14.9737 4.40833 14.6756 3.845 14.0794C3.28167 13.4832 3 12.7534 3 11.8899C3 11.0265 3.28319 10.2982 3.84958 9.70526C4.41597 9.11228 5.1093 8.81579 5.92958 8.81579C6.74986 8.81579 7.44167 9.11389 8.005 9.71009C8.56833 10.3063 8.85 11.0361 8.85 11.8996C8.85 12.763 8.56681 13.4912 8.00042 14.0842C7.43403 14.6772 6.7407 14.9737 5.92042 14.9737ZM11.9329 9.15789C11.1126 9.15789 10.4208 8.8598 9.8575 8.2636C9.29417 7.6674 9.0125 6.93757 9.0125 6.07412C9.0125 5.21067 9.29569 4.48246 9.86208 3.88947C10.4285 3.29649 11.1218 3 11.9421 3C12.7624 3 13.4542 3.2981 14.0175 3.8943C14.5808 4.4905 14.8625 5.22032 14.8625 6.08377C14.8625 6.94722 14.5793 7.67544 14.0129 8.26842C13.4465 8.8614 12.7532 9.15789 11.9329 9.15789ZM20.0579 9.15789C19.2376 9.15789 18.5458 8.8598 17.9825 8.2636C17.4192 7.6674 17.1375 6.93757 17.1375 6.07412C17.1375 5.21067 17.4207 4.48246 17.9871 3.88947C18.5535 3.29649 19.2468 3 20.0671 3C20.8874 3 21.5792 3.2981 22.1425 3.8943C22.7058 4.4905 22.9875 5.22032 22.9875 6.08377C22.9875 6.94722 22.7043 7.67544 22.1379 8.26842C21.5715 8.8614 20.8782 9.15789 20.0579 9.15789ZM26.0704 14.9737C25.2501 14.9737 24.5583 14.6756 23.995 14.0794C23.4317 13.4832 23.15 12.7534 23.15 11.8899C23.15 11.0265 23.4332 10.2982 23.9996 9.70526C24.566 9.11228 25.2593 8.81579 26.0796 8.81579C26.8999 8.81579 27.5917 9.11389 28.155 9.71009C28.7183 10.3063 29 11.0361 29 11.8996C29 12.763 28.7168 13.4912 28.1504 14.0842C27.584 14.6772 26.8907 14.9737 26.0704 14.9737ZM9.045 29C8.135 29 7.3875 28.6405 6.8025 27.9215C6.2175 27.2025 5.925 26.3532 5.925 25.3737C5.925 24.4158 6.20125 23.5662 6.75375 22.825C7.30625 22.0838 7.89667 21.3711 8.525 20.6868C9.00167 20.1851 9.44583 19.6548 9.8575 19.0961C10.2692 18.5373 10.6592 17.9614 11.0275 17.3684C11.6558 16.3649 12.36 15.4298 13.14 14.5632C13.92 13.6965 14.8733 13.2632 16 13.2632C17.1267 13.2632 18.0854 13.6965 18.8762 14.5632C19.6671 15.4298 20.3767 16.3763 21.005 17.4026C21.3733 17.9956 21.7579 18.5658 22.1587 19.1132C22.5596 19.6605 22.9983 20.1851 23.475 20.6868C24.1033 21.3711 24.6937 22.0838 25.2462 22.825C25.7987 23.5662 26.075 24.4158 26.075 25.3737C26.075 26.3532 25.7825 27.2025 25.1975 27.9215C24.6125 28.6405 23.865 29 22.955 29C21.785 29 20.6258 28.8974 19.4775 28.6921C18.3292 28.4868 17.17 28.3842 16 28.3842C14.83 28.3842 13.6708 28.4868 12.5225 28.6921C11.3742 28.8974 10.215 29 9.045 29Z" fill="#5D4CAF"/>
</svg>
