<svg width="178" height="48" viewBox="0 0 178 48" fill="none" xmlns="http://www.w3.org/2000/svg">
<path d="M8.49295 23.75C7.23098 23.75 6.16667 23.3143 5.3 22.443C4.43333 21.5716 4 20.5049 4 19.243C4 17.981 4.43568 16.9167 5.30705 16.05C6.17842 15.1833 7.24508 14.75 8.50705 14.75C9.76902 14.75 10.8333 15.1857 11.7 16.057C12.5667 16.9284 13 17.9951 13 19.257C13 20.519 12.5643 21.5833 11.6929 22.45C10.8216 23.3167 9.75492 23.75 8.49295 23.75ZM17.743 15.25C16.481 15.25 15.4167 14.8143 14.55 13.943C13.6833 13.0716 13.25 12.0049 13.25 10.743C13.25 9.48098 13.6857 8.41667 14.557 7.55C15.4284 6.68333 16.4951 6.25 17.757 6.25C19.019 6.25 20.0833 6.68568 20.95 7.55705C21.8167 8.42842 22.25 9.49508 22.25 10.757C22.25 12.019 21.8143 13.0833 20.943 13.95C20.0716 14.8167 19.0049 15.25 17.743 15.25ZM30.243 15.25C28.981 15.25 27.9167 14.8143 27.05 13.943C26.1833 13.0716 25.75 12.0049 25.75 10.743C25.75 9.48098 26.1857 8.41667 27.0571 7.55C27.9284 6.68333 28.9951 6.25 30.257 6.25C31.519 6.25 32.5833 6.68568 33.45 7.55705C34.3167 8.42842 34.75 9.49508 34.75 10.757C34.75 12.019 34.3143 13.0833 33.443 13.95C32.5716 14.8167 31.5049 15.25 30.243 15.25ZM39.493 23.75C38.231 23.75 37.1667 23.3143 36.3 22.443C35.4333 21.5716 35 20.5049 35 19.243C35 17.981 35.4357 16.9167 36.307 16.05C37.1784 15.1833 38.2451 14.75 39.507 14.75C40.769 14.75 41.8333 15.1857 42.7 16.057C43.5667 16.9284 44 17.9951 44 19.257C44 20.519 43.5643 21.5833 42.693 22.45C41.8216 23.3167 40.7549 23.75 39.493 23.75ZM13.3 44.25C11.9 44.25 10.75 43.7246 9.85 42.6737C8.95 41.6228 8.5 40.3816 8.5 38.95C8.5 37.55 8.925 36.3083 9.775 35.225C10.625 34.1417 11.5333 33.1 12.5 32.1C13.2333 31.3667 13.9167 30.5917 14.55 29.775C15.1833 28.9583 15.7833 28.1167 16.35 27.25C17.3167 25.7833 18.4 24.4167 19.6 23.15C20.8 21.8833 22.2667 21.25 24 21.25C25.7333 21.25 27.2083 21.8833 28.425 23.15C29.6417 24.4167 30.7333 25.8 31.7 27.3C32.2667 28.1667 32.8583 29 33.475 29.8C34.0917 30.6 34.7667 31.3667 35.5 32.1C36.4667 33.1 37.375 34.1417 38.225 35.225C39.075 36.3083 39.5 37.55 39.5 38.95C39.5 40.3816 39.05 41.6228 38.15 42.6737C37.25 43.7246 36.1 44.25 34.7 44.25C32.9 44.25 31.1167 44.1 29.35 43.8C27.5833 43.5 25.8 43.35 24 43.35C22.2 43.35 20.4167 43.5 18.65 43.8C16.8833 44.1 15.1 44.25 13.3 44.25Z" fill="#5D4CAF"/>
<path d="M61.976 40.036C60.896 40.036 60.02 39.688 59.348 38.992C58.676 38.272 58.16 37.324 57.8 36.148C57.44 34.948 57.2 33.64 57.08 32.224C56.96 30.808 56.9 29.404 56.9 28.012C56.9 26.38 57.116 24.784 57.548 23.224C58.004 21.664 58.688 20.26 59.6 19.012C60.536 17.74 61.712 16.732 63.128 15.988C64.544 15.244 66.224 14.872 68.168 14.872C70.136 14.872 71.912 15.28 73.496 16.096C75.104 16.912 76.388 18.076 77.348 19.588C78.308 21.1 78.788 22.9 78.788 24.988C78.788 26.86 78.5 28.468 77.924 29.812C77.348 31.156 76.568 32.26 75.584 33.124C74.624 33.964 73.544 34.588 72.344 34.996C71.168 35.404 69.968 35.596 68.744 35.572C67.52 35.524 66.38 35.284 65.324 34.852C65.444 35.428 65.504 36.016 65.504 36.616C65.528 37.216 65.432 37.78 65.216 38.308C65.024 38.812 64.664 39.232 64.136 39.568C63.632 39.88 62.912 40.036 61.976 40.036ZM68.528 29.956C69.392 29.956 70.136 29.644 70.76 29.02C71.408 28.372 71.732 27.628 71.732 26.788C71.732 25.924 71.408 25.18 70.76 24.556C70.136 23.908 69.392 23.584 68.528 23.584C67.664 23.584 66.908 23.908 66.26 24.556C65.636 25.18 65.324 25.924 65.324 26.788C65.324 27.628 65.636 28.372 66.26 29.02C66.908 29.644 67.664 29.956 68.528 29.956ZM88.1899 40C86.3899 40 84.8059 39.652 83.4379 38.956C82.0939 38.236 81.0379 37.264 80.2699 36.04C79.5259 34.792 79.1539 33.364 79.1539 31.756C79.1539 30.196 79.5259 28.756 80.2699 27.436C81.0379 26.116 82.0819 25.06 83.4019 24.268C84.7459 23.476 86.2819 23.08 88.0099 23.08C89.6179 23.08 90.9979 23.404 92.1499 24.052C93.3019 24.7 94.1779 25.528 94.7779 26.536C95.4019 27.52 95.7139 28.564 95.7139 29.668C95.7139 30.772 95.4619 31.684 94.9579 32.404C94.4539 33.1 93.7939 33.64 92.9779 34.024C92.1859 34.384 91.3339 34.624 90.4219 34.744C89.5099 34.864 88.6339 34.888 87.7939 34.816C86.9539 34.72 86.2459 34.576 85.6699 34.384C86.1019 35.08 86.6419 35.56 87.2899 35.824C87.9619 36.064 88.6579 36.172 89.3779 36.148C90.1219 36.1 90.7939 36.016 91.3939 35.896C92.1379 35.728 92.7499 35.764 93.2299 36.004C93.7099 36.244 93.9619 36.628 93.9859 37.156C94.0099 37.588 93.8539 38.02 93.5179 38.452C93.2059 38.884 92.6299 39.256 91.7899 39.568C90.9499 39.856 89.7499 40 88.1899 40ZM85.7779 29.992C86.0179 30.376 86.3659 30.652 86.8219 30.82C87.2779 30.964 87.7339 31.012 88.1899 30.964C88.6699 30.916 89.0659 30.784 89.3779 30.568C89.7139 30.352 89.8819 30.052 89.8819 29.668C89.8819 29.26 89.7139 28.9 89.3779 28.588C89.0659 28.252 88.5619 28.084 87.8659 28.084C87.1939 28.084 86.6779 28.3 86.3179 28.732C85.9579 29.14 85.7779 29.56 85.7779 29.992ZM108.034 40C107.194 40 106.342 39.832 105.478 39.496C104.614 39.16 103.834 38.668 103.138 38.02C102.466 37.372 101.974 36.592 101.662 35.68C101.446 35.08 101.29 34.336 101.194 33.448C101.098 32.56 101.026 31.612 100.978 30.604C100.954 29.596 100.942 28.612 100.942 27.652C100.006 27.628 99.1063 27.544 98.2423 27.4C97.4023 27.256 96.7063 26.992 96.1543 26.608C95.6263 26.2 95.3623 25.612 95.3623 24.844C95.3623 23.908 95.6143 23.212 96.1183 22.756C96.6223 22.276 97.2943 21.964 98.1343 21.82C98.9983 21.652 99.9343 21.556 100.942 21.532C100.966 20.788 101.026 20.032 101.122 19.264C101.242 18.472 101.434 17.74 101.698 17.068C101.962 16.396 102.334 15.856 102.814 15.448C103.294 15.016 103.918 14.8 104.686 14.8C105.718 14.8 106.462 15.124 106.918 15.772C107.398 16.42 107.698 17.26 107.818 18.292C107.938 19.324 107.986 20.404 107.962 21.532C109.21 21.508 110.314 21.556 111.274 21.676C112.234 21.796 112.99 22.06 113.542 22.468C114.094 22.876 114.37 23.524 114.37 24.412C114.37 25.324 114.058 26.008 113.434 26.464C112.81 26.92 111.994 27.232 110.986 27.4C109.978 27.544 108.91 27.628 107.782 27.652C107.782 28.108 107.77 28.588 107.746 29.092C107.746 29.572 107.746 30.064 107.746 30.568C107.746 31.936 107.842 32.908 108.034 33.484C108.178 33.916 108.37 34.192 108.61 34.312C108.874 34.432 109.198 34.504 109.582 34.528C109.966 34.528 110.434 34.6 110.986 34.744C111.538 34.864 111.97 35.164 112.282 35.644C112.594 36.1 112.75 36.688 112.75 37.408C112.75 38.224 112.318 38.86 111.454 39.316C110.614 39.772 109.474 40 108.034 40ZM118.944 22.54C117.768 22.54 116.772 22.12 115.956 21.28C115.14 20.416 114.732 19.372 114.732 18.148C114.732 17.332 114.912 16.6 115.272 15.952C115.656 15.304 116.16 14.788 116.784 14.404C117.432 13.996 118.152 13.792 118.944 13.792C119.712 13.792 120.408 13.996 121.032 14.404C121.68 14.788 122.196 15.304 122.58 15.952C122.964 16.6 123.156 17.332 123.156 18.148C123.156 18.964 122.964 19.708 122.58 20.38C122.196 21.028 121.68 21.556 121.032 21.964C120.408 22.348 119.712 22.54 118.944 22.54ZM118.944 40C117.984 40 117.264 39.724 116.784 39.172C116.328 38.62 116.016 37.78 115.848 36.652C115.704 35.5 115.62 34.024 115.596 32.224C115.596 30.424 115.668 28.948 115.812 27.796C115.98 26.644 116.304 25.804 116.784 25.276C117.264 24.724 117.984 24.448 118.944 24.448C119.904 24.448 120.612 24.724 121.068 25.276C121.548 25.804 121.872 26.644 122.04 27.796C122.208 28.948 122.292 30.424 122.292 32.224C122.316 34.024 122.244 35.5 122.076 36.652C121.908 37.78 121.584 38.62 121.104 39.172C120.624 39.724 119.904 40 118.944 40ZM133.079 39.964C131.543 39.94 130.103 39.568 128.759 38.848C127.415 38.104 126.323 37.084 125.483 35.788C124.667 34.492 124.259 33.028 124.259 31.396C124.259 29.644 124.667 28.156 125.483 26.932C126.323 25.684 127.403 24.736 128.723 24.088C130.067 23.416 131.483 23.08 132.971 23.08C134.507 23.08 135.851 23.38 137.003 23.98C138.155 24.556 139.043 25.312 139.667 26.248C140.315 27.16 140.639 28.108 140.639 29.092C140.639 29.908 140.387 30.556 139.883 31.036C139.403 31.492 138.635 31.72 137.579 31.72C137.003 31.72 136.559 31.612 136.247 31.396C135.959 31.156 135.707 30.892 135.491 30.604C135.299 30.316 135.059 30.064 134.771 29.848C134.507 29.608 134.111 29.488 133.583 29.488C132.959 29.488 132.407 29.704 131.927 30.136C131.471 30.568 131.243 31.144 131.243 31.864C131.243 32.608 131.471 33.196 131.927 33.628C132.383 34.036 132.935 34.24 133.583 34.24C134.087 34.24 134.471 34.168 134.735 34.024C134.999 33.856 135.227 33.664 135.419 33.448C135.635 33.232 135.899 33.052 136.211 32.908C136.523 32.74 136.979 32.656 137.579 32.656C138.635 32.656 139.403 32.944 139.883 33.52C140.387 34.072 140.639 34.66 140.639 35.284C140.639 36.076 140.327 36.832 139.703 37.552C139.079 38.272 138.203 38.86 137.075 39.316C135.947 39.748 134.615 39.964 133.079 39.964ZM151.084 40.036C149.308 40.06 147.748 39.7 146.404 38.956C145.084 38.188 144.04 37.156 143.272 35.86C142.528 34.54 142.132 33.088 142.084 31.504C142.06 29.872 142.432 28.432 143.2 27.184C143.968 25.912 145.036 24.904 146.404 24.16C147.772 23.416 149.332 23.044 151.084 23.044C152.812 23.02 154.336 23.38 155.656 24.124C157 24.868 158.068 25.876 158.86 27.148C159.652 28.42 160.072 29.872 160.12 31.504C160.144 33.064 159.772 34.492 159.004 35.788C158.236 37.06 157.168 38.08 155.8 38.848C154.432 39.592 152.86 39.988 151.084 40.036ZM151.192 34.78C151.84 34.78 152.404 34.528 152.884 34.024C153.364 33.52 153.604 32.932 153.604 32.26C153.604 31.588 153.364 31.012 152.884 30.532C152.404 30.028 151.84 29.776 151.192 29.776C150.544 29.776 149.98 30.028 149.5 30.532C149.02 31.012 148.78 31.588 148.78 32.26C148.78 32.932 149.02 33.52 149.5 34.024C149.98 34.528 150.544 34.78 151.192 34.78ZM168.121 40C166.009 40 164.329 39.652 163.081 38.956C161.833 38.26 161.209 37.36 161.209 36.256C161.209 35.488 161.461 34.924 161.965 34.564C162.493 34.18 163.117 33.988 163.837 33.988C164.413 33.988 164.833 34.084 165.097 34.276C165.385 34.468 165.637 34.66 165.853 34.852C166.069 35.044 166.333 35.14 166.645 35.14C167.149 35.14 167.401 34.96 167.401 34.6C167.401 34.12 167.113 33.772 166.537 33.556C165.985 33.34 165.289 33.04 164.449 32.656C163.297 32.104 162.469 31.468 161.965 30.748C161.461 30.004 161.209 29.248 161.209 28.48C161.209 27.568 161.533 26.704 162.181 25.888C162.829 25.072 163.741 24.4 164.917 23.872C166.117 23.344 167.545 23.08 169.201 23.08C170.593 23.08 171.841 23.272 172.945 23.656C174.049 24.04 174.925 24.568 175.573 25.24C176.221 25.888 176.545 26.608 176.545 27.4C176.545 28.144 176.305 28.708 175.825 29.092C175.345 29.476 174.721 29.668 173.953 29.668C173.521 29.668 173.173 29.608 172.909 29.488C172.669 29.344 172.441 29.212 172.225 29.092C172.033 28.972 171.757 28.912 171.397 28.912C171.205 28.912 171.037 28.984 170.893 29.128C170.749 29.248 170.677 29.404 170.677 29.596C170.677 29.74 170.737 29.884 170.857 30.028C170.977 30.172 171.181 30.292 171.469 30.388C172.213 30.628 172.933 30.94 173.629 31.324C174.349 31.684 174.937 32.164 175.393 32.764C175.873 33.34 176.113 34.084 176.113 34.996C176.113 36.556 175.381 37.78 173.917 38.668C172.453 39.556 170.521 40 168.121 40Z" fill="#5D4CAF"/>
</svg>
